<mxfile host="app.diagrams.net" agent="Mozilla/5.0 (Windows NT 10.0; Win64; x64) AppleWebKit/537.36 (KHTML, like Gecko) Chrome/134.0.0.0 Safari/537.36 Edg/134.0.0.0" version="26.1.1">
  <diagram id="WI9T0HZ2pTsCkuznbFz-" name="Page-1">
    <mxGraphModel dx="830" dy="458" grid="1" gridSize="10" guides="1" tooltips="1" connect="1" arrows="1" fold="1" page="1" pageScale="1" pageWidth="1169" pageHeight="827" math="0" shadow="0">
      <root>
        <mxCell id="0" />
        <mxCell id="1" parent="0" />
        <mxCell id="jbPWZQVVDv3tzskfTXxq-1" value="" style="image;sketch=0;aspect=fixed;html=1;points=[];align=center;fontSize=12;image=img/lib/mscae/Managed_Desktop.svg;" vertex="1" parent="1">
          <mxGeometry x="228" y="386.1000000000001" width="90" height="64.8" as="geometry" />
        </mxCell>
        <mxCell id="jbPWZQVVDv3tzskfTXxq-12" value="" style="endArrow=classic;html=1;rounded=0;exitX=1.005;exitY=0.511;exitDx=0;exitDy=0;exitPerimeter=0;entryX=-0.009;entryY=0.531;entryDx=0;entryDy=0;entryPerimeter=0;" edge="1" parent="1" source="jbPWZQVVDv3tzskfTXxq-1" target="jbPWZQVVDv3tzskfTXxq-13">
          <mxGeometry width="50" height="50" relative="1" as="geometry">
            <mxPoint x="530" y="440" as="sourcePoint" />
            <mxPoint x="340" y="335" as="targetPoint" />
          </mxGeometry>
        </mxCell>
        <mxCell id="jbPWZQVVDv3tzskfTXxq-13" value="" style="rounded=0;whiteSpace=wrap;html=1;" vertex="1" parent="1">
          <mxGeometry x="430" y="360" width="220" height="110" as="geometry" />
        </mxCell>
        <mxCell id="jbPWZQVVDv3tzskfTXxq-14" value="" style="shape=image;verticalLabelPosition=bottom;labelBackgroundColor=default;verticalAlign=top;aspect=fixed;imageAspect=0;image=data:image/png,iVBORw0KGgoAAAANSUhEUgAAEAAAABAABAMAAAAAjTkkAAAAFVBMVEVHcEwXEyHwYicXEyHiQyn8bSb8oyZf3ppJAAAAA3RSTlMAdJ6mksZvAAAgAElEQVR42uzBAQEAAACAkP6v7ggKAAAAAAAAAAAAAAAAAAAAAAAAAAAAAAAAAAAAAAAAAAAAAAAAAAAAAAAAAAAAAAAAAAAAAAAAAAAAAAAAAAAAAAAAAAAAAAAAAAAAAAAAAAAAAAAAAAAAAAAAAAAAAAAAAAAAAAAAAAAAAAAAAAAAAAAAAAAAAAAAAAAAAAAAAAAAAAAAAAAAAAAAAAAAAAAAAAAAAAAAAAAAAAAAAAAAAAAAAAAAAAAAAAAAAAAAAAAAAAAAAAAAAAAAAAAAAAAAAAAAAAAAAAAAAAAAAAAAAAAAAAAAAAAAAAAAAAAAAAAAAAAAAAAAAAAAAAAAAAAAAAAAAAAAAAAAAAAAAAAAAAAAAAAAAAAAAAAAAAAAAAAAAAAAAAAAAAAAAAAAAAAAAAAAAAAAAAAAAAAAAAAAAAAAAAAAAAAAAAAAAAAAAAAAAAAAAAAAAAAAAAAAAAAAAAAAAAAAAAAAAAAAAAAAAAAAAAAAAAAAAAAAAAAAAAAAAAAAAAAAAAAAAAAAAAAAAAAAAAAAAAAAAAAAAAAAAAAAAAAAAAAAAAAAAAAAAAAAAAAAAAAAAAAAAAAAAAAAAAAAAAAAAAAAAAAAAAAAAAAAAAAAAAAAAAAAAAAAAAAAAAAAAAAAAAAAAAAAAAAAAAAAAAAAAAAAAAAAAAAAAAAAAAAAAAAAAAAAAAAAgNmDAwEAAAAAIP/XRlBVVVVVVVVVVVVVVVVVVVVVVVVVVVVVVVVVVVVVVVVVVVVVVVVVVVVVVVVVVVVVVVVVVVVVVVVVVVVVVVVVVVVVVVVVVVVVVVVVVVVVVVVVVVVVVVVVVVVVVVVVVVVVVVVVVVVVVVVVVVVVVVVVVVVVVVVVVVVVVVVVVVVVVVVVVVVVVVVVVVVVVVVVVVVVVVVVVVVVVVVVVVVVVVVVVVVVVVVVVVVVVVVVVVVVVVVVVVVVVVVVVVVVVVVVVVVVVVVVVVVVVVVVVVVVVVVVVVVVVVVVVVVVVVVVVVVVVVVVVVVVVVVVVVVVVVVVVVVVVVVVVVVVVVVVVVVVVVVVVVVVVVVVVVVVVVVVVVVVVVVVVVVVVVVVVVVVVVVVVVVVVVVVVVVVVVVVVVVVVVVVVVVVVVVVVVVVVVVVVVVVVVVVVVVVVVVVVVVVVVVVVVVVVVVVVVVVVVVVVVVVVVVVVVVVVVVVVVVVVVVVVVVVVVVVVVVVVVVVVVVVVVVVVVVVVVVVVVVVVVVVVVVVVVVVVVVVVVVVVVVVVVVVVVVVVVVVVVVVVVVVVVVVVVVVVVVVVVVVVVVVVVVVVVVVVVVVVVVVVVVVVVVVVVVVVVVVVVVVVVVVVVVVVVVVVVVVVVVVVVVVVVVVVVVVVVVVVVVVVVVVVVVVVVVVVVVVVVVVVVVVYQ8OBAAAAACA/F8bQVVVVVVVVVVVVVVVVVVVVVVVVVVVVVVVVVVVVVVVVVVVVVVVVVVVVVVVVVVVVVVVVVVVVVVVVVVVVVVVVVVVVVVVVVVVVVVVVVVVVVVVVVVVVVVVVVVVVVVVVVVVVVVVVVVVVVVVVVVVVVVVVVVVVVVVVVVVVVVVVVVVVVVVVVVVVVVVVVVVVVVVVVVVVVVVVVVVVVVVVVVVVVVVVVVVVVVVVVVVVVVVVVVVVVVVVVVVVVVVVVVVVVVVVVVVVVVVVVVVVVVVVVVVVVVVVVVVVVVVVVVVVVVVVVVVVVVVVVVVVVVVVVVVVVVVVVVVVVVVVVVVVVVVVVVVVVVVVVVVVVVVVVVVVVVVVVVVVVVVVVVVVVVVVVVVVVVVVVVVVVVVVVVVVVVVVVVVVVVVVVVVVVVVVVVVVVVVVVVVVVVVVVVVVVVVVVVVVVVVVVVVVVVVVVVVVVVVVVVVVVVVVVVVVVVVVVVVVVVVVVVVVVVVVVVVVVVVVVVVVVVVVVVVVVVVVVVVVVVVVVVVVVVVVVVVVVVVVVVVVVVVVVVVVVVVVVVVVVVVVVVVVVVVVVVVVVVVVVVVVVVVVVVVVVVVVVVVVVVVVVVVVVVVVVVVVVVVVVVVVVVVVVVVVVVVVVVVVVVVVVVVVVVVVVVVVVVVVVVVVVVVVVVVVVVVVVVVVVVVVVWFPTgQAAAAAADyf20EVVVVVVVVVVVVVVVVVVVVVVVVVVVVVVVVVVVVVVVVVVVVVVVVVVVVVVVVVVVVVVVVVVVVVVVVVVVVVVVVVVVVVVVVVVVVVVVVVVVVVVVVVVVVVVVVVVVVVVVVVVVVVVVVVVVVVVVVVVVVVVVVVVVVVVVVVVVVVVVVVVVVVVVVVVVVVVVVVVVVVVVVVVVVVVVVVVVVVVVVVVVVVVVVVVVVVVVVVVVVVVVVVVVVVVVVVVVVVVVVVVVVVVVVVVVVVVVVVVVVVVVVVVVVVVVVVVVVVVVVVVVVVVVVVVVVVVVVVVVVVVVVVVVVVVVVVVVVVVVVVVVVVVVVVVVVVVVVVVVVVVVVVVVVVVVVVVVVVVVVVVVVVVVVVVVVVVVVVVVVVVVVVVVVVVVVVVVVVVVVVVVVVVVVVVVVVVVVVVVVVVVVVVVVVVVVVVVVVVVVVVVVVVVVVVVVVVVVVVVVVVVVVVVVVVVVVVVVVVVVVVVVVVVVVVVVVVVVVVVVVVVVVVVVVVVVVVVVVVVVVVVVVVVVVVVVVVVVVVVVVVVVVVVVVVVVVVVVVVVVVVVVVVVVVVVVVVVVVVVVVVVVVVVVVVVVVVVVVVVVVVVVVVVVVVVVVVVVVVVVVVVVVVVVVVVVVVVVVVVVVVVVVVVVVVVVVVVVVVVVVVVVVVVVVVVVVVVVVVVVVRX24EAAAAAAAMj/tRFUVVVVVVVVVVVVVVVVVVVVVVVVVVVVVVVVVVVVVVVVVVVVVVVVVVVVVVVVVVVVVVVVVVVVVVVVVVVVVVVVVVVVVVVVVVVVVVVVVVVVVVVVVVVVVVVVVVVVVVVVVVVVVVVVVVVVVVVVVVVVVVVVVVVVVVVVVVVVVVVVVVVVVVVVVVVVVVVVVVVVVVVVVVVVVVVVVVVVVVVVVVVVVVVVVVVVVVVVVVVVVVVVVVVVVVVVVVVVVVVVVVVVVVVVVVVVVVVVVVVVVVVVVVVVVVVVVVVVVVVVVVVVVVVVVVVVVVVVVVVVVVVVVVVVVVVVVVVVVVVVVVVVVVVVVVVVVVVVVVVVVVVVVVVVVVVVVVVVVVVVVVVVVVVVVVVVVVVVVVVVVVVVVVVVVVVVVVVVVVVVVVVVVVVVVVVVVVVVVVVVVVVVVVVVVVVVVVVVVVVVVVVVVVVVVVVVVVVVVVVVVVVVVVVVVVVVVVVVVVVVVVVVVVVVVVVVVVVVVVVVVVVVVVVVVVVVVVVVVVVVVVVVVVVVVVVVVVVVVVVVVVVVVVVVVVVVVVVVVVVVVVVVVVVVVVVVVVVVVVVVVVVVVVVVVVVVVVVVVVVVVVVVVVVVVVVVVVVVVVVVVVVVVVVVVVVVVVVVVVVVVVVVVVVVVVVVVVVVVVVVVVVVVVVVVVVVVVVVVVVVVdiDAwEAAAAAIP/XRlBVVVVVVVVVVVVVVVVVVVVVVVVVVVVVVVVVVVVVVVVVVVVVVVVVVVVVVVVVVVVVVVVVVVVVVVVVVVVVVVVVVVVVVVVVVVVVVVVVVVVVVVVVVVVVVVVVVVVVVVVVVVVVVVVVVVVVVVVVVVVVVVVVVVVVVVVVVVVVVVVVVVVVVVVVVVVVVVVVVVVVVVVVVVVVVVVVVVVVVVVVVVVVVVVVVVVVVVVVVVVVVVVVVVVVVVVVVVVVVVVVVVVVVVVVVVVVVVVVVVVVVVVVVVVVVVVVVVVVVVVVVVVVVVVVVVVVVVVVVVVVVVVVVVVVVVVVVVVVVVVVVVVVVVVVVVVVVVVVVVVVVVVVVVVVVVVVVVVVVVVVVVVVVVVVVVVVVVVVVVVVVVVVVVVVVVVVVVVVVVVVVVVVVVVVVVVVVVVVVVVVVVVVVVVVVVVVVVVVVVVVVVVVVVVVVVVVVVVVVVVVVVVVVVVVVVVVVVVVVVVVVVVVVVVVVVVVVVVVVVVVVVVVVVVVVVVVVVVVVVVVVVVVVVVVVVVVVVVVVVVVVVVVVVVVVVVVVVVVVVVVVVVVVVVVVVVVVVVVVVVVVVVVVVVVVVVVVVVVVVVVVVVVVVVVVVVVVVVVVVVVVVVVVVVVVVVVVVVVVVVVVVVVVVVVVVVVVVVVVVVVVVVVVVVVVVVVVVVVVVVVYe8Ok5tGgjCArhXx3ylfwEXpAEnpAipqjsD9z7Isy7JJsB1Jhlju770T0MoU/U1PEwAAAAAAAAAAAAAAAAAAAAAAAAAAAAAAAAAAAAAAAAAAAAAAAAAAAAAAAAAAAAAAAAAAAAAAAAAAAAAAAAAAAAAAAAAAAAAAAAAAAAAAAAAAAAAAAAAAAAAAAAAAAAAAAAAAAAAAAAAAAAAAAAAAAAAAAAAAAAAAAAAAAAAAAAAAAAAAAAAAAAAAAAAAAAAAAAAAAAAAAAAAAAAAAAAAAAAAAAAAAAAAAAAAAAAAAAAAAAAAAAAAAAAAAAAAAAAAAAAAAAAAAAAAAAAAAAAAAAAAAAAAAAAAAAAAAAAAAP6wz58/H1Nr774V7wQAENgBh/ZdZBvs/q39y9E5ACBL3/4T2AXb/8U7CQAkGdoLYQlg97J4CQCAyPt/YAJ4XbsEAECMrr2RVPzwpvbJeQAgxNeW2wT7t7WnvYAAEGtowU3w19o9AgAQoWvBTfBTa0YAABgApDXBU7U3ZwKAzAFAzAjg08niJ6cCgPL6kz0wZATQktMPANFO98CMW/CZ8GMLAIDyujM9MOIhfEhOPwBEO9cDI27B52r3BgBAag9MuAX3rXkDACDS2ReAhFvwkJx+AIh2/hIcsATQmjcAADKdvwQHjMFbcvoBINqFHjhVr70TAAAQAPLG4BeeP2wBAhB7CS4fAIbk8QcA0S5dgsuPwYdmCxCATJd6YPkxeBMAABAA4gLApecPW4AAxF6C25QcAI4OBwChPbD4GLxPTj8AROuTA8AgAAAQ6nIPbMnF2wIEIDYAHEsX35otQAAyNQHAFiAAcbp3euCkeACop0/ugb0AAIAAkLcIF108ANHe2QGsvQgXXTwA0VpyD3y3+KMDAkBJXXQPFAAAEADyFuGiiwcgWp/cA98v3hYgADUNyT3w/QBgCxCAmlpyDxwEAAAyddEBYEbxR2cEgNAAULcHzih+ckYAKKhP7oFz0o8tQAAqGpIDQC8AABCqJffAOQHAFiAAqQGgbA+cM/6wBQhAQV10AJhV/OSUAFDOrCF42Utwa5YAAIg0JF+COwEAAAEgLwDMG3/YAkz1+N3ehwBKasmX4JkB4OiY5Nkdxp+eH30PoJx5Q/Cql+B54482OSdxd//xDREACL0DFw0ATQDg1O1/PEEEADIDwDE5ANgCzHIYT3r2ZYBKhuQAMPf9wxZglPGc572PA8TdgdsUHQCODkqM3XiBBADktcCSU/BeAGBJ/5cAgMAWWDIADM0WIEv6vwQA5AWAks/gQ7MFyCvjKAEAGWa3wJJT8NZsAbLk/m8TEAhsgQUDQBddPb86jHMSgO8EZLXASQBA///Hky8FRLXAgs/gfXT84RfjTHufCkhqgQUDwBBdPWv7v0cAIKsFNtVT2m52APDfAgD3b0EHLPgM3gQA1vR/jwCAAHDXuuz4w2uHJQHAIwCQ1AIn1WMA8IMPBty3fkkL/KJ6DACMAIAShugWOAgArBwAGAEASS2wqR4DACMAoIRFHbDcHlx29Vw1ADACAO5aF90CF1Y/OS8GAEYAQBF9dAsUAPhpHI0AgCTLHsGr7cH10dXz0sOaAPDkuwECQEL1tgANALwBAFW06Ba4NAAcHZiqdqsCgN8HDNytrkW3wKXVT05MVQ/rAsCTLwfcqV4AEAD4a+ULgDVAICgAlGqBi+cftgDft3v86Z7+1GsDwN5PHLhPQ3QAWBx/bAFe7Pun9+TuIgk8rA0AT370wH1q0Xfg5QHg6Mic7P3vr8tvPAWMozcAIMriGXitO/AgAFzf/Bf8Ar3thoDd+gCwdwgAAaD+/KNNzsyr7r/8H85vMwMIAECa5TPwUnfg1mwBfmT3324GOKwPAH4XEHCXhug78Ir5hy3AHx6vaJnfmubWrs0CAJCmRQeAXgD44Mv/y32ATRV0TSV7BwLIuAIXGoKvCQBHp2Z3GH+Lx+10zgcBABAAku7AQ7MFeLP2v6mXgKsCQME3gMfVpKGyP1ufrpw+OwC0Zgvwhu1/Q1OAgwDwm77Hk79Vq/5sfbpy1lyBCw3BW7MEcNP2v5n2eV0JmoQAIAAQ0gGnKtV3AsAH3pO3vA64u66AvZ+0ACAAIADclVUPILlbgI/jH3PrDnplAKjX9AQAAUAAKG/dFbjMK3ifnX8W9sjD+Ac93zYCPAgAAoAAIACEWdcBywzBh2YLcAPX/w28A1wZbuptAQoAAoAAUN6QHQCaALCJ6//thwACgAAgAAgAAkDUK3hrtgC3cf2/9RDg2j+5JiEACACEdMCpRvVda7YAN3L9v3ECEAAEAAFAAAjTZQeAPrv82f1//ED7+yxx/zd795bkOG5EYdi8LEAMbkAPXEBVcAMMBfa/prG77fBMRN9KRAJ5cP7zZL+MSJSI/JAA1aP90QEAAAAAo+fdCvjyvn0vAGxn03RpAgAAAAAAAAAAsNoFPwqnAAMrgdCBuuXuRX/wZwcAAIB4VMBBAFAKpwCjl8YabwMAAAAAAACAW96ugE9un/o/0EEAAAAAAAAAMMv8dgW8vG/fBQCd6n97AeyK+xYAgAAA8n5WAMApwMh1scxRQAAAAAAAAAAATsfgzG8/virqCAAAAAAAAADMcnhXwPdvvzBNjPUyAAAAAAAAAJileFfAGwB4MksMJQAAAAAAAADwyly8K2ABAInrf9OiCgAAAAAAAADAqALeuf2LOWIoAQAAAAAAAIBXVu8KeAcAL6aIoQRw/375BgAAAECUcnhXwDv+KcwQQwkAAAAAAAAAvFK8AXAAgOz1v5kAAAAAAAAAAAAYVcBbAHgyP4wkAM4AAAAAAACsMhfvCnjr9q9xvxfLedoJAAAAAAAAAKyyegPgnn9ezA6t8qFw0wAAAAAAopTDewkMAH6Y6UyXLfGUCAAAAAAgiineFfBeA2TUU4AJ63+LfxsQAAAAAAAAAIAPAO41QEY9BXielgIAAAAAAAAAp9xrgesvgW8C4KL+N0z0fd8++Dhc1QMAAAAAjJybLXD5JXApHAKovhBWFQAAAAAAAAA45fAGwAwAhOp/dIsdAAAAAAAAAIBND/wuAAY8BTidibPlvnUAAAAAABFK8V4C390BGe8UYOr6H3wQcEp9dQCAAACSawUsDoC7DRD1DkjNKV9fAAAAAAAAAGCU2ytg8R44ABCr/7HHALK/pgAACAAgmQDwlL7/UjgFWHUNrC0AAAAAAAAA8MnhDYDbOyCDnQIUqP+hffY9cXcCABAAQJKtgMtlDoAnc8I4AgAAAAAAAACbzOYAWAGAXv0PrLM3fwhgvKIHAAAAAAAAo26Cr+YA+memUyRb0hF4DDdBAAAAAADGTYUCKL0JfhROAerV/7hKCwAAAAAAADY5zAFQCqcAK0z24/yjALwEAAAAAABwSY0C+AQAQ2QRqv9h5eUWgm6eTZi2NxPYeAAAAAAADJu5RgG8zO//OcZ3YTpPBHBPQR+dPhsAEABAAMBXs5rff7W1b4c3AWKq3i0G3bwkAEAAAFErgC/uf4Asp1hi3gW8BYBefwIAQAAA+XpqnAFU3gR3v/9KhW+kNwE6kgQAEABAGqaYF8ACAFQbAFHz0I2B+Oj10QCAAADSqwA+uX/q/yibAEu/lgQAIACAtMtcpwBe3L/tXDDeJkC/jgQAIACAtMtqXgAr3f/LdyoYsAWwd7saAEAAAGmXw7wAAoDbq97xfgxg6XYxAIAAACIHgML90wAY58cAuk2LAIAAANIuxbwA1rr/p/bXYDllE7EJ0O1SAAABAKRZZvcCWOv+L+3vwSmcgOGYehU8AEAAAGmW1bwAzgDg3hw/Zgtg6jUrAgACAAgAULt/6VOA0ymdjyQTYwWJAAACAEizHOYFsBoAiuU0MOwmwNKpCAMAAgBIsxTzAlgNQMqnAMUbACHVr9OkCAAIACCtMrsDoN79XzQAzFsAH30+FgAQAEDeSr0OuOgKGABIvwIYdw5w6jMnAgACAIggACQLYMUOyMtvEhh6E2DvUu0AAAEApFUOAGB/CnCABkBIqekyJQIAAgBIqxTzFXDFDojsKcARGgAJWgB1ih0AIACACC6AJQFwAIAhGgAJWgCd/xoAgAAA0g8Aki3wmgC4aACM1QJYOtQ6AEAAAGmUmh1wyRVwcW+BDFP/O7cAar2GAAAIACCCC2BFAFTtgEi2QKZzmDx6Dk6tDwcABAAQwQVwuQAADYCxWgB7888GAAQAEEUACLbAq26BKLZABmoA9PxB4Hq/QwQACAAgigtgQQAc7i2QfSQABJSbqXX1BQAEABDFBbBgC/xwF9BQAIgogkvjOgcACAAgivVPsAVezAGwDFX/Q+rN0vZjAQABAESx/ukBYC7mLZCxGgAxVfC3Y1T1HyICAAQAEEkAXO4AUBPQYA2AoCq4N6z/AIAAAKJZ/+Ra4Ku5gEZrAARNS3u7+g8ACAAgmvVPDgCH9wAM1wCIKoN7uxIHAAgAIJL1r7gPwMvk4XdrAfxr+9nHbWlQBgAIACBdAfAUG4BiLaBpwPofVQenH06Un/U/DQAQAEA0658YAGbvARixAVB7S/6XTYAt4GMAAAEARLP+XQwADYAh9wC+EeAfk+XnFvIhAIAAANIia/X693IfgMvh0TdtAXwzwHcEfG5b1CcAAAIACABokMN5AAZtAKjPTACAAACiWf8KAwAAeke76AAAAgBIi9Qvf2KnAK0HYNT6H7sHAAAAAAAAACNkdgeA9QAM2wAILYUAAAAAAAAAAEZ4DcB6APaTFgAAAAAAAACYZnUHQMQAqJwCHLgBoN0CAAAEAJAGOYzrXxgAyujPPQAAAAAAAAAA+RTj+hcmIJVDAEMDQHlyAgAEAJD4zPYAKL4AWE4AAAAAAAEAAMD1NYCQAbhoAHAMEAAAAABAUmc1rn+BApI4BTGdJy0AAAAACABwzeEOgBgBSWyCtNsB+Nz+nW+16T//Y+PXAAEAAQCkf4rvAtgeAI1q/49q0tREAbp7AACAAACiCgChU4AxLRCFUxANdgB++c/lTVv4GYSH6mMJAAgAIOGZ7QEQNADXwA/9H6/9f2+QDQAAAAIASJ8ENcCFXgMorpsgwQ2A7Q9LUWwbAAAAAAIAyE9y+C6AY1sg+QEQegRw+8KFTDsAAAAEABAAMEoLJP8mSKLDd3EEUC09AIAAABKeYrsAjgbAM/mNx+0AfL5RhDZaAACAAADSNFENcJ1TgFEtkPQ9kLAdgK3xFDTkMUAAQAAAkV3/ygCguAIg0fI/siUh+lMAAIAAAKILgKc7AJJvgkyplv/fL2kHAACAAADSKoftAvi/idsDKYM+8ZHTwc4eAAAgAICor39VABDXAkneA8nZbp9oAQAAAgCI+vpX5DWA1ZRAEUcAa0zzEwAAAAQAEPHyJ3IK8DAFwJ6z/ke0Jh6KTyYAIACAAIDgFNMeSOK99j0nTAAAAAAAAGCoBK5/RV4DKJ4EWjKvs2sLAAAAAAIASNPydykMwFw8CbSn7rPvAAAAEABAhMufBABWUwAk32dnDwAAEABAhAEg8RrA6kmgJXf9rywAxfcAAAABAES4/EkA4PAcgT39Etv9PQAAQAAAES5/hRFIe9v5W+wTAAAABACQwIRWP4nXAIolAJb09b/uNQruAQAAAgAIAAjN7DkCVXcAoqrrAgAAAAEARLT8XYxA0tuuWv8f6eakEfYAAAABACQ0a2z5ezECOe9aZH99yr5LAQAAAAAgsjnsARA8AmWwh73x1D4Z7wEAAAIASGhK8TwDBwBElta77x4AACAAgEgD4MkIZLzpmjsAwZcKAAAAAQAkIrM9AMJH4BqqtnR4+m33AAAAAQAkMqtl+WsKgJTHIOrV/00GKwAAABAAQP6Ww7L8NSVQxhGYhBoA9bTyEHs4AQABAAQASI9AxlOAk1L9r3a1AAAAEABA/p/iWP4aA+A50KPeZ1bfPfcAAAABACQwcynupwDjR+DKd9Ni5+omoXYFAAAAAIBoZLUHwOwIgGo7AI9GF7xY7gEAAAIAiDYArtwj0AAA+Y5BLFIbAPVaFmI1CAAQAEACcziWv9YEyncM4pRrqS9KOxYAAAAAACKQYg+ABgRKtwsynXoL6l1MLAAAAAAAkjsN+t/ZXwMAABrr6TrX/JB6PAEAAQBEHADP1EPQYgSuUR70ntV0V+tZAAAAAABI5qz2AGhCoNcoD3rXDXUAAAAIACD1cjiuf9sDINkuSKUdAEm2AAAAQAAA+ZZS3E8BNumBJGuCqJ6oBwAAgAAAorX8BQDJAKB6oH532wMAAAQAEHEApH4NoMkmSLlS3bPqK/UTAAAABAAQqeVvagAUvybIdKr20t1+CggAEABAxJe/qV8DKH4GWk7VQrqIwgUAAAAAQFyr35V3BGZDAAifpjf7KSAAQAAAAQBhabQJkqoJIvyj+hVaAEplCAAQAEDUl7+JXwNY/Qw0ncKNdK9DAACAAACiXv0SnwI8/Ay0nMJVdNe1CwBgxgUAxLD6JQZA8QNAjSMAj14XPwlfOwAgAIAYAuBpD4BEBtJ+l24HAACAAAAiVP2urCMwFzsDif+azqJ88QCAAABiV/3SAmD1GwL1d+mdTgECAAIAiHz1ezEEL/mHPMlMvkjzBQAQAEBSpNkRgLynAA8/AKj/mN4EAAAAAQAEANxOsRuCCkcAOvfQjU4BAoBhs33L/4bm+/+zBcDfxiLHQHikYfV7MgRJhkD/PbpFegcDAFD6fzGEn12rXwcA/GQ0PgZFx9sAACAASURBVFFAeOaG1e9iCJIMwa7eALjfAtA5BQgAxsq0/dHofW4Pscnh3eq/pxwGk6wAYAUAgvP4DgAAgOLK/0tf0k3pyXpLQ3/yafQBxqh+L4YgxxBU2AHQLYtyR5YAwDDV/41ha2+AhgD4Yw190gYISsMzgFlPAfoNwX0AJFg/25wCBABDZNreftjaflWbAWBLPAg2KaRpntIlJVP1vLsH8PHV+fvNPO7+d9++0c8vXikAyLX479QEbwSAKbmDPDJTkg0BcP8IwACK+Wj0cY9ojNXKZ5NvkCUAtvt/nS3/7PCl8v/Op0AAAKCeK8NfXf8IYIW7+OIuBgAAAP3Kf0sCtADA1uahJb/LSklumwynAO8fAUgh8bt9DAAAAHTKfzsCxANg2sWnnnFyUJIbZwQA5HD4AgAAQPZMe9W/UQsChANgGmDyGSUUZEMA3J6TkkziTdsYAAAAdHjUOmyDRwPgdkuEJgAA4BRgz1kpyZe3KWMAAADo2P1vuAIOBkCFLzw/DFQrnAF0PAU4xg7A7akEAAAAoe5/sxVwLACqDAoCqBTOABqeArx9BCDLHD61dAwAAAD9l/8t6l8oACqhqMFOiEU4A2h4COB2yUnz9W15HwAAADTdZ+tW/yIBsEuMgE8ox4YA2BsWitR3AgAAQNZtto7bAIEA2DVGAACQgU8B3n0K/2LvXpLjRnIADItiaE9GXsAb7YvhM/Te0VF5/6v0eKbHbbf1KDIBJB4/LlDFRya+BFCSny18NdxCAAAAsOuyzbyPegBoUQxUJZgBrDgFmKYDMHopAAAA+GyyTS3EqQFAuiuCAEaDGcCCU4CL143HHAA3k00dAFQDQDN6Xpuzr29+WxDAYDADWBAAoxnH0w6+2lEGAAAAV/lfTQBKANBoiyAAAMAUoPH+lKfWCgAAgLsC23wB6ABA574ggKEgGRecAswEgCe7SwEAAED/jfSQAHUAEO/XEPmDGcCKU4CJOgAAAADUPf9rJUAVALSvCMBdMANYEABLqgW3ml0LAAAA3s7/OutRAwB6b/mBAAAAU4BWKdNZBwAAAIDK538VASgAYHHy2hK/BDOABacABxOOt/3b7GIAAADwd/7XOAIrAMDNe0v8HKTiglOADQAAAACQ5fyvIAB5ADTdG8D/BrwWzABWHAJI1QEY3FsOAAAAvNDazaIUB4C6jBgDAAAAwAQA7sptKwAAAMXzv/CqFAdANAFVCWYAC04BDmrc3fa9WG0cAAAAOM3/wkVwaQC0aAKqEswAFpwCHMw3/optAAAAVM//sutSGAAmoxE30vn5IBEXnAIczDfJdt4NAAAAB4U1VwIQBkALJyBGAIi0AGhmOSKCaAAAAEiR/yVpLguANdz1AwAi7xRgukrbanQ9AAAAeG0AyNpcFgAt3PVXCWYAK04Bpiu0LQAAAJD/BW+sKADsXm+aACeDGcCCU4CDtUqP77FRzgMAAMBvA0AyA0oCwPDWHAjgXJCGCwJgNUsRIY5fAAAAZMn/YqtTEgCWtZEbOR0AMAWomW5cLrEVAACA8g0AQQEIAsDWRgjgTDADWHEKcGyz2rIB4CsAAABZ8r/U+hQEQIsIoCLBDGDFKcCEP7VZAAAAoAEgt0DlALA4foPLBzOAFYcAMq4vmzMTAAAA8qQWjt0XAFpIAAEAIisAxkh+AwAAAAB4bQBINQHEALC4foWrB0m44BTgOn13cbYHAwAAkKYBIJQBxQAwAUc3EvuDwQxgxSnAlABYTTYMAAAA3BcARG6vGADCTkFUCGYAK04BtoyLawEAAID8L1YCkALAlDd7J7UzAgAAVDasAwAAAADguAEgs0qlADBHRxu5HQAwBfhO5OyvmWyXAAAA+C8ASNTphAAw6cVmCuCxIAUXnAJcctoaAAAACgBiJQAhAMzSESWAR4IZwIpTgMvco4XDgxgAAABz6ml+SwAyAJimI0oAjwQzgBUBsE49Wbi8LAAAAFIVAMYXqgwA5rVHKAEAAKYAKwFg2a8HAAAAuQoAwyUAEQBM1BElgAeCGcCKU4CNdWWPJwCQ8zVqbgFw1AYAJYAHggRccQqwsawAAABI3QAYLwGIAGDm5VMC+DSYASwJgJwzgAAAAFAAkCsBSABgLo8oAQAApgCFAXAAAAAAACIUAAaxLgGAuTyiBPBZMANYcQpwAQAAAACkLwAMLlYJAEy+fkoAnwQzgBWnABdUDQAAQP4CwFgJQAAAs19qSgCfBOm34hDACqoBAADIXwAYKwEIAGD67aEEAAAAgGiueQIAAAAAxCgADC3XcQAsoQFUIJgBLDkF2AAAAAAABQoAQ7c5AwC+kuQ/CmYAS04BNkgNAABAhQLAyHodB4CD66cH8FEwA1hyCpCxGgAAAGb30txnwGEAuPARWf6D6Pc7+Xdy9A4AAAAAiBgB8v9ACWAYAGtsAFUAwH8CAsxN/71/iVS43AAAAAAAUToAIyt2GADReyDp47n/N/4gD8+JP/53/79F2reeAAAAAABhCgATAbAEv/788dL/DqoAE+L+/7v/Z6TOJQAAAAAgUAHg+pIdBcAa73UuFq/9R1AFmHP6jwYAVhMAAACj114DAC349ZcCAFUA+97/jwi0cd0AAAAAAJEKAJfRPggAN/eHPeu96L8GaXlK+jefAgQAAAAAlCkAlAcAVct34rl3CDC3+j9lCpCJGgAAAOoA4OqtHgSAn/vDpvV2vPwGAEYBJqT/UABg1QAAAODreTkFQPjrrwgAigDa6f+N/G88BcivAAEAAChUALi6ascAsIS//vTx+hYAGAY0Pv6bTwEuRrkBAACAvABYAuX/i/d6DACegEQP4M3o7wR52mj4bw4AVgAAAABAnQ7A1WWbBwBsW6cAQBHA9Phv/TOA1fwoAQAAQLZX6WuosAfAEv/6s8dzfz/I1nbHf+spwJFMQy0NAACAaB2Ai+s2EQA4uLwRLx9kJIoAdsd/awA0AAAAAMC8RRSlBj4EgBb/+ksDgCKAYf63/RnAyNJk1QAAABCuAzABABlKIMnjtSMAB+V/cwDQSwMAAGBeGy1MAhwBgLcWCT2A8wCgDWBz/Lf+GQCVNAAAAEp1AK7d7REAuBMSG9dv8WlWQgBW+d/0ZwAAAAAAgFIdgGsrdwQADQB4j+f+QJC91cv/1gBYjM8RAAAAZHuXwnUALiXAEQCkKIEAAIoANvm/fwMAAAAA0AHwlAAHALCkEFDueOkIwEv+jwKAjWUDAABAvA7ApR7AAAAclkjYu64BAAEot/+tfwawsogAAAAo1gEwBoDDEgnVy3/Fa0cAXvJ/FACwagAAAIjYAbiC95CXyeYlDgBGAdXzv+XvABtrCAAAAH8AOPZ/AgAAAO3oHQF4aP9b/wyg2WQGAAAAkgJAYcJt33/7kL3Ne6opAUAP4DoAEIBy/gcAAAAAFC0A7O+8GcsOAOZOQWSO544A/OT//s3swWNoAAAA/ABg/+ijJAmwFQcAPYARADAKqJr/AQAAAAAFOwD7Z5+2AwB6ABrxcjJDUQPQzP8xALCxbAAAADBM/98/rk14rCkBQA9gCADUABTzv93vAPk7QAAAALjoABwPrqe9AAAOvZ8/AIA34/V0jqIGoJf/YwCAVaMIgGX/LNro7vpoAAClEtrp479ozcEpAI7915WhpwAOMGMAoAaglv/t/hAAAHAKAM+fDADkOwCnHsqU/GcCgF217cEQwLtxJUlRA1DL/919/gIAAAAASLVqjpPPZEb+0wfAB3dBowxAD2AUANQAtPK/2R8CWFk/AAAAzLjioaU04UPbvPSvRAB6AKMAoAaglP8BAAAAABFi1lHUfghAGQCfzkDINwIAwI947gjAU/6PAABaaACgPADWSflfYvbAEwAe6oFIFwE4wowDAAFI/f+fOX8IoAEAAAAAZnYADuPHf/U90ATAoz+BAABK8dIRgKPzPwAAAACgRgfgMH/+F2+5IgC2SV+CHoAAABgElD//2/0hgMbqAQAAYB4Ajm3aZx9mW4XgC7kCAGcAoAagkP/NAMDqAQAA4HIsM3PQmgQA1q0PegC/x+sIAKgBiOd/AAAAAEDipy9y2atp5m0u8r+oAACACAAQgPAAgOFfAjJcuAAAAGQDQJuZ/4frD5vptYptI4IC4BAjAgCaAOL5HwAAAADgPuyzn2RO9gCAzfLNZ5D5vRjMVghAOv8bAYB/BQAAAECQI7g4QG5Gz1b8sYt9FXoAQgBAAML53+gvAS2sHQAAAMwfgdQSWg0/v7nJ/4J/D4ANTAgACEBuABAAAAAAECHa9OwTGwDHnOsGAP+O53EAMAgomv8BAAAAALkBsE3/BpMBcGz2Lz9DAEoAQACSDQArAKwsHQAAAOz5LCZoO4LIA2Cbs3Oxi6kAgCaAZP7v3wAAAAAAiQHgoAgxFwBjAqIH4A0ACEAw/wMAAAAAsj57wRbaYnb+FQfAxJsPAH6Nl44APA0ARADAxrIBALUB0DxknrAA2ObtXZxjdADAGIBY/jcCQAMAAAAATMi9x/QX8OyXEAbA8A1YAIA3AFACkGoAWP0zAAAAAADAjAzk4lvMBMDkDgw/ZtIAAAKQyv8AAAAAgLwAEMw7VllYFgC3yVfOEIAKADoNgCoAYNUAgNoAWH2knTUkAKaXYDjI/BSvYgC4k/8BAAAAAAUA0FwUAIbS4GZzuVqPu7n5JgCAEoBkA8DqvwFROgMAAMB+8WwBv0fzVgCQKQEwBCALgE7+BwAAAAAAAKvFs9ocf5u7AoDIHCAAEAbAnQZABQCwbgBAbQAsX51cbEAAeGh/cJLRAUBhAXQAAAAAQBEArG5yjs0qbv4KACIlgI1NTBYAnfwPAAAAAAAARmsnHABclGGYAvwnZFNXpwEQBAD8N2AAAADMr3Xz8g6eSsXNYQFA4luxk4kD4E7+Tw8A3AwAagPAT9c5GAAOJ9fOEIAWADoNgPH4AgAAAABICICbn68SHwBPAMAhADoFAAAAAABA4vfp+tqRv/8mE3BiANh8LECmABUBcCf/AwAAAAAAgMWJs0UCgJ8RSLYyNQB0GgAAAAAAgLzv0+roStdIALi5eeeYAtQDQKcAEAAAK3UzAAAAbC9187SObxbPVrcAsgAAjwC4k/8BAAAAAABAf+ZsCQQA+QfNFKBHAHQaAAAAAACArADYd0cXGggAm6ddjL1MDwCdAgAAAAAAIPFMyd6iA+CweLba9XamAF0C4E7+BwAAAACk3oSXs4UAX/fdHAA3V28dAFAEQKcBAAAAAABIvwmfKgT4egvNAeBsG2MK8Hs8dwTgrQDgHQCkfgAAAM4XAm7OFrIxAHRyLVOAPgFwJ/8DAAAAAGqUYR8qBOjc/CUKALz5h81MsQVQowTQAwOgsWYAAACwLAQUB8CTs8unn6kKgE4BAAAAAABQaRDr40KA0ocGAcDh7fKZAtQFwJ38DwAAAACotQe/XwjQukyDw68EAG7eViEA0AVApwEAAAAAAKi3B79dCCgOAHerkJ8BKAOgUwAAAAAAAFQ8hL1RCNi83XhTAOglWgDgFQB38n9GAPAPNAAAADhfCHB3400BcHP44nGc0QVApwEAAAAAAKjbhv2pEHAEfg0FALD5W4b8DEAbAJ0CAAAAAACg9BzW34UAfwC4GTxbi4M2AHALgDv5HwAAAABQfBD7eyHg5u41tASA5jPmZwBuAdBpAAAAAAAA2IKfNnevYRYAjPUAqm9nHQF4KwAAAAAAAIhHywsRAODyBrCd6QPgTv4/HxbPnRUDAAAAAEgAgCfHX608ADoNAABwckPbZ8fmPQ0DACIUAHQfcQMAfgHQKQAAAMOWnkTclL8oAAAAAMDLjrHVfn1eO00AZ/kfAAAAAEAkAoDTOwAADADQaQAAAAAAAACAs6V8GDxbmzI7vwP0DIA7BQAAAAAAADtwVQBoP+EGABwDIJkAenUAaC8YAAAACABgtWUU/1WTAQA6+f9U/AkAAAAAINIAQPsOLADANQDuNAAAAAAAAAAAALgDQPHfAb50BOCrAAAAAAAAIPIA4HC8mwEAi5TWyf8AAAAAAABQEQD6D3hoz9hKvz02ALjTAAAAAAAAAICCANDPsADAOQCSCMDmXn0DAAAAABAA4NFYDJY7ACjfBOgAAAAAAAAAALw12QHA1XjulABcNQAAAAAAAEQeAFj8zq45/34AIIEAOgAAAAAAAAAAd88XALgHQCf/PxhfAAAAAABEEgBsBvdgaNOo/fp0SgCuGgAAAAAAAOLhWADA4BQgAEAAjgoAAAAAAIC/2Luj3MaNJQrDogS9U9AGhAvonQTX4HdBcGUHmf0v4SaZ69xJYCceN7v6VNXfGxhRZFd9rNPysNIA4KBdz6r/DtCvsRn9HwAAAAAAACoBwCdiBwABAPBKAKDynwECAAAAAFKsEwBo/Ii1AXBHAFoDAAAAAAAAKwsAFu1vofwD6AkAo/8DAAAAAKi/Al+8EwB83q8BQAgAvBIAaPxXAAAAAAAAAJAGAC0/A6j9hwDOhgCkBgAAAAAAAFb3newEAPWvAQAYIYBQ/wcAAAAAsPq/+voAwKu7BjCK5joaIwChAMDsIb5feu9oAAAAWA7bJRcArgAgBAACCsAAAAAAAABAcl3FAeB1d08AIAYAjP4v8HeAAAAAAAAZ1iYOgNnpezgF+IyayxgBCAUAAAAAAACWw27JBYAJAAQBQDABGAAAAAAAAGRLAJwAEGAUwp8CJATQ6f+mvl0AAAAAACLL5+fv2QFQ+wm8MwIQCgAAAAAAACyH1uwCgDXCVwEAGAHIDAB8/gwAAAAAAKD0AAAA8AT+sc6GAIQGAAAAAAAAVv+9subqracISgEAoUKAAf3fHupeBgAAAADE7/8AAAD8sY7GCEAmAAAAAAAAsPoHAE4AmCN8GwAAAagMAJx+BQgAAAAAKN3/AcCAnypIriEAeKX/BwVA790CAAAAq+8W9gOA4/cBACIBwAgARv4KEAAAAAAQ+v2/tf8DAADwfd0RgM4AAAAAAADA6tnuHAHgma6HCCoAQJQQYFD/f+rvFgAAAADA2HXZAAAA2GmdjRGASgAAAAAAAGD1Hv97AcDz3p4AQCwAGAOAYb8CBAAAAAAUfv0HAADgbR1HAeCV/g8AAAAAYPm3fwDAI/i2jBGASADg9itAAAAAAEDA4f9lv8fcAwCer9YTAIgGAGMAMAoAuvMyAAAAWO+//F/3fMwBAI/g93U3QgCR/u/1K0AAAAAAQOHu7wQA12/I46sAABVGAOO+D68fAQAAAAAACnd/AAAA/lxnQwAiAwAAAAAAAOsvzf/S5zEHAADg+zoOBMAr/X/EjwAAAAAAAHWbvxMAfBvrFQDEA4ARAIw4AwgAAAAAqNv8AQAA+GEZAtAYAIQAwCL7yQAAAEjS+6/9H/N0AGioHMWft7sRAkj0f4uwWQAAAAAAvdbU+8XfEwC+txYAhASAEQD4nwEU/tEsAAAADP0BAADwW2dDABIDAAAAAAAAQ38A4FzTij99x7EAeKX/e/8IAAAAAABQbejvDoDZ94uUPdgMAKKMAAZ/EbcIm6XzyR4AAAAKNf/rsMccAACAt2UIQGEAAAAAAAAoNPYf+pgDAADwtu5GCCDQ/y3EZgEAAAAABH71zwqAAwCICgAjAPA9Ayj8dzMBAABI3/03geUAAOfvFQB8dZ2NEYDAAOARYrN03tYAAADknvxftw0AAAClNfoUoIQAhvd/AAAAAEDyl3+R7p8SADyDX17De58RAHieAQQAAIDi6//yvwktAAAA/lx3RgDjBwDmeccBAACg+BZ9+XcCgPf/scMzGBgAwwUw/ht4xtgsnQMzAAAAaP8AgGfQc52teghgAAAAAACKb5H2DwAAwA/raMVHAAIBgD0AAAAAALR/AOBdOsoDQOAU4FgBKFz/DQAAAABA+88CgCUMANbyALhb6RBA4epdzwC2AGABAAAAAHxyXbYNAAAADgEojwAUAgDfIwAtfRYAAAAA8MnX/20DAAAAAGgLQOLiHwAAAAAApv8AAAC4r6NED7TC/d/3CEBLn10BAAAAAIGn/0kBMAGAry+rOwJ40bj2AwAAAACA138AAAD8172uAKwiACYAAAAAQMn03wsAMwDgEIB+CCBy4c849QkAAAAA0Ov7AAAAoO4hAP8RgEgAYA8AAAAAAON/ADCgpgEAkUMA/gJQue4bAAAAAIDxPwAAAIUPAXiHACpXbd73u6F0zAAAAACAD9dlAwAjAHAAAAkOAfiOAFQCAO8jAAAAAACAqvE/AAAAsocAfAUgc9EPAAAAAAD9HwAAgNqHADxDAJ1rvgUCwAIAAAAAiN3/AQAAED0E4DcCeNEBQKRCBQAAAAAI3v8dAHAAABwCkBaAzhU/AQAAAAD0fwAAAMofAvAKAYQu+BGpVK0AAAAAgNj9HwAAANlDAD4jAKEAwP8IQEujBQAAAAAE7/8AAADIHgLwEYBVTgCaGi0AAAAAIHb/BwAAQPcQgEcIYKUTAAAAAABA4f4PAACA8CGA/iMApQBgQAIAAAAAAMj14JYHwBUAZDkE0H8EIHWxA252y98rnwEAAAAAofs/AAAA0hmAFer/TwAAAABA5DVtAAAAkAFECQGkAoARRwCaKtYCAAAAAAjd/wEAANDOAKzMAGDEEQDZvwU8XfZaAAAA6LceAAAAZNa9igC0rtMOwQCwpi7KAAAA5O//AAAAiB8C6BcCaAUAQxIAAAAAAEDdAAAAAAD5DMCKDABuofpjmP0CAAAA/R8AAICwGYCVGABYrP4IAAAAANjlfgAAAAAA3EMAtf7/jNUfO3eS8Rc4q7dhAED/BwAAoMM6WoERgJEAtNatEADYAAAAIAAAAAAg7gjA8g8ABiUATQAIUbQBAAAQn6QBAACgtc6WPQSQ6/+DEgAAAAAAQN0BAAAAABEyAMseAIxKAJoqV4jfAQIAAKD7lAEAAEAG4C8AuQHAqAQAAAAAAFA2AAAAACBGBrBvCKDX/5/hGmSUDQMAAAABAAAAALEzAEsdAAxLAAAAAAAAw24FAAAAZADuAtAbAFi8Bhnkd4BT52IAAABA4AFARgBsACBjBrBfCCDY/8clANn/EhAAAADKhgYAAIAMwHcEYCQAOwEgQNUGAACAAAAAAID4GYClHQBY0PIFAAAAALgCAABABhAlBFDs/4+gAAjwO0AAAACKDABWAAAA9luWdARgJAD71a/E5RkAAIBQA4BlAgAAIHcGYDkHAM+R93kCAC2FEQAUB4DKAGA5AAAAsONSPAbYHgIo9v+hCUAbAOa09RkAAIBIA4DloAoA9xoBAPJmAJYxALCx9xkAAAAAMMTP+63LAQAAgH3XOaEAJAcAz7H3ufG9I+kLGgAAAGEGAOv8ZYsAAAAQKQNoCwEk+//QI4CNJWxNW6ABAACIMgBYGz4LAAAAH617uhGAkQAAgH0bEgAoDQCBAcA6t2AkHwAmAMAIINIA4DH4Nuf+HSAAAACi+dl+6T8AAAA9luUSwAsDgN0BMGet0AAAAHTeO/u2fwAAAGpkAJYrAHiOvssTAAAAACDiAODSvpH7A2AJU8/WAyvxCEB0AHALDYAla4n+bJcEAIUBMAm1fwAAAKqMAF4T9f9n7Cq2Zi3RAAAAdLzc/Y7+AQAA0G1pHgP8WgggeimP2HNMAAAAAMDwl38AsMO+AACZRwCiAwATuMlNpUj8AT4BAACg12r2fvkHAACg1AjgNUv/fwrc5Kb3mDlpjdZvwwCg4gBgvew77QIAACAgACxJAGDh65h44QYAAEBzdLZz99cFwBplywOAd9Y5xwiAAUCvSaZ44b4CAACQIwH45+4PAABAl2UpBKB6FTeFW5z5ZwDdqxYAKAsAzwTgMnfax/kAUOwgatURgGXo/xIDgMZfM+ec0gIAiq9KArBe5n77GAAAgH9cxwQjgBcGAP0q2ZyySAMAim9XN3/61f/S9wMBAAAQdATwygBAAQBLyiINACi+wxOA9dL/Ye8PgC3MfQEA7y6LHgIYA4COpSwnAD59VQAAAIyc+wOA/V5nAEDKEcALA4CepUz6FCAAAAABE4CffPUHAACgIgA+KQAGAN1aifwpwBMAAACKm2b37g8A2gEwH1jvrXvoEMAYAPStZcrb5tr9ogBAUQB0SgAuX/9EqgBwLhAAYPcVeQTwwgCg8zQTAACAggCQevkHAHsUMwCQMARgANAbAEvGKg0AAEDHPfN+L54HfCQAAAD+dcn+LYB/DwGMAUDvtxnlU4D9DzYAgJoA2P8IwDyk9TkAwPfWAgBGABECgKfS/W3LMzO+pgEAANBxy+ya/QOAnWQGAD5cFlQADAAcqpnuvun/d4AAQFEA7Dz9H/a0A4AYv2diBPCVEED3Uz8SzTN1a/cJAAAAtUFztzuiCoA1Si2jz3+4jiFHALoBgGUKNHUPAVwBAAAQ3DF99g8AaJxm0ueTCUD3Mz+17m7j+0w+ACz9OwEAiAyAHY8AXIbuYgAAAD617vFCAGMA8NmVFAAbAAAAghumz91QBYBvffj6x1wPrEwjAOEA4Jarni3pyvTnqzIAqAiA3Y4ArPPgD5UOABsA6LPCnQMkAPCaaC7pyjQAAABdvvuevREAAICey2IJwBgAuBW0dGUaAACAfmDutHFkATB73hoA0Gv9J1QIIBwAPNK90aQr0xHaMAAIDwCBgVc2AEwAoNsKdQ6QAYDTthGu3gAAAKi9ZnZ0MwBoq2SxHsEB6xgoBKD/A4CDx7sAACgIgEmx/+sCwPPengBAv3UOEwIIBwBPyVsrVssGl2kAAAA6JmadbgMAAACEAPwJAOfKrQuAk0cpAAAAQOSCZQGwxihk84GVJAQgAHAGwJKrTAMAANBxt3RqigAAABACEACMeKdZcpXp2eGLAwBxASB4AEAZAFuITQ8APjMCCBECEAD4FA/xDGADAABAFACzyh7OBoANAJQPAQgA/Gua4OaZXAoWAKgHgPYfI47LrQAAIABJREFUAawyHwsAaB9kIgT46RCAAGAAAJZUZRoAAIB+eVmvXqMLgDnCpgcASUIAAgDn7Ex09/gcWgIAAEDkYgEAACAEUB4A3BIXNb0MAAAAAE0sd2o1ugBYIpQx/hJwihCAAAAAtIYai8f3BgDKAqDTtQIAAEAIQADgPzuT3D4TAAAAarTsOmvWBYBfcbgCgNohAAFAsqo24l1g9vhnAEBUALRaeVH6XC4A2CJUsUgEJQT4aP1KADBorjnnuR4AAAD6AWCV+lwAAAAkCgF++fYrAcAYAKhN0JzKFQAoB4ATAFB9O5gAQOkQ4Jdv374RAAwpa2oAmAAAAJDcKbPUIw8AdI8xEwL87Pqt/4uOAJ7yt7T5z5vNWar06vLvAICaAFi1drAPAJYAtwYAhA8Bfh8AiAogwD1tBYDWCOAKAACAYljW70IBAAAoHQJ87/+SIcAtfV1TA4BXtQIAAEDkPJwwANYAt4amHj0E+F//FxwBPPPXNTFCu4WBAKAcAEQHAMoA2ALcGnp68BDgbQAgKIAQd7T1FKDUCOAKAACAIgA6fvkAAAAUDgH+3//lQoBbiBs6AYAvVAIAUA0AbftE7YM5AWCWvzX8IcDgIcAP/V9sBPAMckNbASCUAUwbAAAAgs/WqvbBnADgc3tPAKBsCPDjAEBMAFFuaPMhgDVFkV59ag4AqAiAnpd5AgABfqhACODQ/6VCgFuU+5kIAH4/WQIA1QDQdFZG7oM5AWBNtu1ZYiHA3/q/0AjgWaOyaW2iDQAAAACgA4At2bZnaYUAfx8ACI0A4tzOKQ0Ammr07PNPAYD/snc+OdbjNhC3IiBrG7qAN5m1DV/kwYu3DgJE9z9CkAmQZDD9dT/b/FOkihdoWTRZP7Ok1wMCwAa3MAIA3AEmmgAC+g9DAGugdD4GAJQqMryxRAAYDQAaAQC0MxQCwKAmwBf6D2ICnJGy2bIAwEEAIAAgVskMtzArALDIL6w5QxPAfgAAMgIIlc3nhwCO+M+xG/0tAsCAAIC3sEwA0AgAQ5oAX+s/BAGsoZJZkgCA5YUlAgABAOQsPDQAWFwDyHGDiSaAhAGAYQKcsXIpAAAQdXQQAAgAiG/XwABwgNc9ASCsCfCrAQDACCBaMp8DAMII4JmTMRv9MQLAeACw4S3MDABm9cTA/kITTQAf/XcngDVaLgUOAQAUkul9JQIAAQBEBLEBYMPuXgSAqCbAN/rvbAKc4VIpAAD+o7Riun4CAAEAAwDK6ADQCAADmgDfDQCcRwDxUilwCMD/JiABgAAA+noBLswMAPS/DFrotkUTQH4A4EsAa8BUCgDAHvsZrgoRAYAAQABAOB1UDgLAeCbAD/rvaAKcETPZBAhgjtugb6yeAEAAwGDjCg4AM3ThU8VDmgDvnwCg0wAwERWcVm58W4kAQAAgACBkuBIAxjMBekclgDVkIiUOATiPAA4CAAEAs0R0n7GBA4C2N9iQF0cTwEv/nUyAM2giwwNANe5SBAACAAEAQWMPAsBoJsD7EwDoNADsBuj+4zTry0oEAAIAxjMe4ACg/GFQbOueAWAC9I5KAGvUPEocAvAcAVTrpRMABgOAiloXgwNAjdqyaAIo67+DCXCGTaPIIQDHEYD5XSUCAAEAQmUKPADswJVPAIhnArw/BYBOA0D7OwKlnMpBACAADAkAdXAAiOta0gTQHQDYE8AaOI0ihwCOqKvf7PSAAEAAGAsAVJ+/EAAGMwEu6L+xCXBGzqLIIQCvEcDjAQABgACgVyCI7JsFAJ71LV4CCGcCvK8AQKcBYKahnkTtcE6JAEAAgCiKAx8AdtjSJwCEMwF6RyWANXYWZQDAZQRQHLglIABsiG2YAEAA8Cv9bWLEMgEu6r+hCXAGT6LMIYAj5NJ3Qz0gABAAABTQEgAUPwtKwO8VmgBWBoDpCCB6EmUOAXgM1Z4PADbD7SIAEAAAlmUKABvgi0cAiGgC9I5KAGv0HAodAnCoKZdTSgQAAgACALQIALCj1j6lO5YJcEP/jUyAM34OhQDAvKOXgwBAABgVAI4IAKD2VfC09qncoUyA9x0A6DQATD0A8xGAwLot/yoBgABAAMCofV4CiGUC9I5KAGuCFEoBgHFVCQwANsvdIgAQAADeflsA0OoJ0aaVNAEc9N/ABDhTpFAIAIzL6iAA+JMZAcAJAGoMAFDagkIAGMgEeN8FgE4DwBQA9jlGX37UnQgABAAAAGhBAGCDLP55YsQxAW7rv/oIYM2RwSpGAMGohQBAANCsjhnw9TcGgB2y+KnagUyA3lEJ4EySQKmLgJZk3by+TggABAD/cihRAOCAbFgU7TgmwPsJAHQaAJYegF1liTDLKACgmBUCgA8A1DAAsGGlhJcAopkAj/RfdQSwpklgEwMAq7buRysEAAKAPwC0oQEg1mllmgB++q9JAGee/IkdArCqrUoAIADgF4feMx5hAEDh5SsEALT4G6YBoGoCZMqfHADss8FyiyOrRAQAxC9RAoDPmswBYAN66XgJIJoJ8Fj/1UYAa6b8NUECCMMrBAACQFAAaIEAYMcrfwp2FBOgd1QCOFOlT9ADMOjsrrPJiACwAaZiBADYASvAHADE8bMSAEYxAd4SANBpABjN1I0GbFKLJQAQAHRftx2wAuwBYId553gJIJgJIKL/KiOANVn6miQBxND/mwoUEQAQ/yvrCACgVQl1ZAAoXpXPsDYBekclgDNb9kQBYA+xVAIAASAoAByhAEA41c+XNU+MCCbAWwoAOg0AUw9AlQDE2pK1DDsCwAGYjSEAYMYrVgcAkG0HBwFgEBNATP/FRwBrvuyJAsCxqK2zenclAgABwFlqajAAEN2G6ob+DFsToHdUAjgTJq/KEsAMv8zNegWeAKD2zUMAcHjIIxoAbCgPzzOAcUyAtyQAdBoAtgCAOPyUWWBIAFBTWwKA/UOWcAAg2A0KFo4w1EwAUf0XHQGsKZMnDACY/wVMYH0EgMEAYEL72GzxAGBDalMEgAgmgOwAQJIAzpy5a8IAsMvPACT1/3ZrDgkAgL9IMwQAHGjrcQIAsRFAAVoLQ9EEkNZ/ORMgqf6LewDyBCB6U2Ez36fZ8/kJAD6CO8MVqg8AbAC54BnAQCaAuP6LjQDWrLk7wAlA9qaiff91BQCtrx4CgPlTtogAIPQCSvQAngEMYALIDwCkCOCVNnUNmwBQfqmAADAaADQoAChHSACQ2Qi0KwkMHRNAQ/9lTIAzb+bEPQC0078yXSAmAGh99hAArPe9xQQAkVZQsHoSQ8sEUNF/kRHAmjh1CgAg9otADYZMCAAEAEfD+bEGegHAhtKhCADwJoDOAECCAF6ZM9dwCUD8ioLDoMQVALTaHgHAeN9rVAAQ2AmZGSUlGt0E0NL/5ybAmTpxRQMAjv154RdxNAkJAGin0UYBgIq070dYANgx+hPPAMKbAGr6/3gEsObO3KETT5VvgVpSUABQ+vAhANjue4kLAI8zXiFWwdA2AfQGAE8J4JU8cVWJAHYnjVHpygQAAoDfvh+BAeDhLFCoO80TA9oE0NT/ZybAmT1v5dCKGWtNm0cfcgYAndHnCABQcL44S2QAePgK+rM/w8IEUNX/RyOANX3i1ADgbu3Lu/+PtZgAQABw2/cjNAA8KoGGACEMdRNAdwDwhABe+fNW9Qjg1nWAprQWlz16DgDPtkNFcQkAljPnGhwAHpgAUpPAbWIgmwDa+n/fBDgHSFtRBIBjv4oAi9ZKNpcm7A0AYP+ZLlAnRgEAkfL0BID776BYZ5onBrIJoK7/t0cA6wh5a4dqXECAsugt41ETCAsAKpJLADB0nVt4ALj9syBia6E2Q5sA+gOAuwTwGiJt9VCO5TMZXFRJxGeL3AFAYwQwBAA0DM2xvgevUoOzRwZ4BCCICWCh//dMgHOQtB3q8bMToPnx/1x6HAGguj44AcBZdFoGANhnhxefRwCCmAAm+n9rBLAOkrZ2HBYMMP9a/PVX8EyJAwOAggHaHrwEQDGrFgXUdM4ZAO4QgODRJAIAsglgMwC4MwJ4jZK1chjF/qeuW5bFBD+OaVgAOIAAACo21X3fkSrTGwCu70aBqX2Gqglgpf/XCeAcJ2vmvXex0n2hjwBHACjez04A8JOdlgUArhKA6DcJZRnYBDDT/8smwDpO1sqRPeaBAUDs3zMPBQDFWPJUbXB/ALi2HcUuzwxXE8BuAHB1BPCaCAB5YhoZAH4ggJkAoLLvQGUJAABXzgHI9qOZqgxrAljq/zUCOIdKWkuu/3NcAJiUm+9y/VN1CACw/B+86s4cAgB8TgBV9u9Sk3FNAFP9v2QCrEMlrRAAUgPAr4YAv1++JAAo7fvD5LdkAPDphggvgb8CgGsC2A4ArowAXoMlLbf+P+4BngAg1Q+XL9X/zifSGAAg8JQYBwBwAOCTdRTjNDP8TABr/f+cAM7RclZTA8BGAPi9/S7/Xc6ytPs6RQAQOXthWJE7TG5n87/PIwCwJoC5/n9sAqzDJY0DAFQA0GczAoDWvt9PfzlyAsD3JwEWgLebYWUC2A8APh0BvMbLWSMADAsAMwFAS4JBDuXsSLldZkP55xEAWBPAQ/8/I4BzwJRlPgY4hwaAQgCICwA7Rs53sNx+4Y1o/TMQHgFANQFc9P8jE2AdMWd5RwCev8gSAgA2AoCaK7ZDpHzHy+2y/L/46/1ZqjGoCeAzAPhkBPAaMmU1LQBssQFgIgAEBoA7BwHlkW8fLbcEAHQTwEv/fyaAc9CUpQWAiQAg+5U6CAA0JwJoBwGADkB2E8BN/380AdZBU5Z1BLBFB4BGAHB5MaQKYvHf3XEBYKYWQ5oAfgOAn0YAr2FTlvQUwEwAIAB4AsCl/S3OGc7WBKjEmCZA76AEcE4EgFQhcg2ohqQPrS45CAAI/i+ej1+D5SAA0AHIbwK46v+3JsA6bsZy3gScCQAEgHviIPi3PrMBitbOEgAYSCbA2xcAOg2AcUYAU3gAgPshgFEAQPI5PxgCFL19HRYAKMOQJkDvoARwjp2xhPq/xQeAiQAQHwB+HAJo/RDO0ADAnwGENAHc9f+XJsA6dsbyjQCEOkByANgIABbeyzJ7fP2PDAAzVRjQBHj7A0CnATDGCCAFADQCgMtTK/wgz2L+8W8EAMuyEAAYH5kAvYMSwDl8wtKNAOYMAFAJAD5PrfJnlz9AwLJY7KY+AFi8pnQAUpgAEPr/pQmwDp+wbBcBtokAIN8ohwEAxQe1/WAeFAA2SjCeCfDGAIBOA2AAD2BOAQCFAJAOAFA/hR8AAF7zYD8HNAF6ByUAGgCQFA8xAvQFgAmsUw4DAJUAEBkA6AAAmgAw+v8nE4AGQLoRwJQEABoBwGdATAC48gbVeAlmGJsAbxwA6DQAkp8C2AkAKsskABAAvgIAtN7Bbo5nAvQOSgA0ALL5npKXgJwBoBIAfACgEgCuiC0dAMb3JgCU/v/BBKABkM8EmLIAQCEAEAACAECLll+GrQnwxgKATgMg8whgSwMAE9ZWjQMAEwHgCgDUmM/MsDIBwPT/fyMAGgAJRwBTHgBoBAACwO9LhgaAQgBgfGMC9I5KADQA8vX3OREAVKhmORAAgHkAEzYATFnrnyFhArzxAKDTAMg6AhD9APAGgEIAIAAEAIAKtVcMLBMAUP//MwKgAZCwwU+ZAGCC2q2BAGBCWzE2AAB5ABwAoJkAvaMSAA2AfCOAPRcANAIAAeDfbxM2AEwEAMYvTIA3JgB0GgDwg0//AaA7AFQCgA8AVLCXGhwAYF4NHgFEMwFA9b//kwZAwhHAngwAtGerMwHAZ+OvvtTgAFBDJZdhZwKgDgB6pwGA3fYQTgC5A8BEAHDSCCwHAB0ApqQNgPE0/oqq/39nbvL1+D0dADQEMRwRABoB4Irgtki5ZRjGb5j6/w9mJuEIYEoHAJUA4PPMOIcA9ikAANScDYDx3ASgARApav7WHgoAioG4EACgPYAtAgBgbBePANIEoAEAbTrHKn9/AJgIAE4AAPO0cwgAaDBbxQALGgA0AYKWPwAAVAKADwDAzMKmEABQYbaKQROABsD9aMkbOwHgbsscCwAmqOXCA8CUswMwMpoANAAymgBzSgCYCABOMtGQXmt8AADYLvZu0PiNBkCgqLn7ejQAaAbyQgDArYMpCACUlB2AkXAEQAMgYaNXOQCMAACVAOCkE0irxQcA/+1i5yYB0AAQiJDnAOesADBhqOGAAADxvFMYAPCemPAOIHDQAKAJEHD8BwEAjQDg88gIZbDHAQDv7wb2beD4CwcANAHiVT8EAFQCgNMjAy02AAA4vx8cANAEoP6PagLMiQFgQmmbwwEAwAhgCgQANWMLYAgFyk0AZiKhCbBPmQGgEQB8AADoYHsEAHB9QTY2bY4AeANgUBNgSg0AFWTrhgMAfw9gJgBwAEACoAFAE8Cl+DEAYCIA/Iudu8lx3IjBACrLgNY2fIFBFl63kAsNcv9DJAgC5AfBtHtcJZLie8vZjFSSip9Iq4MCQHQjbF9KBYBLiYtKEF8AGAIU+/lPkgBwzRGe+gWA6FP+qBUAApdLAyC/VQPAEKDSACBNALgIAD0DwLtNoKMDwLXCNaXtEED9z9J4rlH/swSAmXXoo0w1jCgWlyxHWiMAhO0ZGgAlPH0BUMjlfPt51QBwFQCCbpjQc367sh4eAK7n2wM4TQvgmytwviHA1Gc/SwBYBICoOybJb1uKBICge8ReLQEYACSqfwdukreUC3ArcyW+8AvKlgEg8KTfzyFNAoAGQBm+ACgl/24+d/iXJgDM21gFgKyDsL1iALhELxSprRoAEkCd7N8gAPya4Rgy3zNhZz3gQTw+AEQs180+XcdT/a/k0rr+JwoAFwEg6KaJegT2mgFgCV4oDAF8AVBh+Fzhxz95AsC86nuLP4TcqfGR4d6uEwAeZ9sEGGrzBYAEUOXRTxQAFgEgqm2UoAFQKAAs2S8nDYcAfgGY79WzwOwvUwB4CABBFSPkvIdU1ZAAcOxyGQAYAhgAzHQ5zUZeOwAs4cvYNQBEtAD2ugHg2OW62aGrWQ0Aamlb/3MFgKsAEHTjBJz4mGcwJgAcOTXUADAEMADo2AM4ZPSXKgAs0Vto2wCwxB9jpQCwBAYlDAEMABokgGOSf64AcBUAggLA9ehjHFRTgwLAcctlAFDSZgBQy7Vn/U8WACZVYAEg3anfageAw5bLAMAQwACgYQLYb8lPe87xXQSAoABwbA9sH9VVjwoARy2XjdkQwACgYQJIf9a3QldBAMh2/9+qB4CDbhUDgLJWAwAJIH/wzxYAltBttHMAWIIPsFgAWPJeSHoNAQwATpcACpzzrABwEQCC6sZxQ4B9XEGNCwCXoHXCEMAA4NwJoMIpT2tOPgILYusAcNztfztDAJh/s+wGAKVtBgASQPYf/uQLAIsAENU5fkQeXrkAcAnJSRgCGABMc29W/zMGgPEb68tVonkAOGYIsI/MfYEBYPbrwoft2BDAAOBg4X8R6OC+X8IAML4MCwCZOmBDGz+RAWDu7aL+17caAEgAuX/3kzEADN9YBYBECeB2ngCwnGgjoGQLwADgXAng8Mc+ZQAYfgkEgDQr8DG2mMYGgIl7hY1YAjAAiEkAj4o795kCwPBXKwEgauVfL9gVA8C8jolt+Bw2A4CCourA7fhTTRoALjELKwDMTgCj/9/gADDrjrEHn8VTA6CgkI8B9oD6nzUADH61EgCSjMCGB4/oADAnL91swYYA6n/kGKDB+D91ABibAF6tiALAzLb2j2+aogFgUf/5kYlfAny3uvMSwNG14B5znmkDwNA6JACkSAAf4wtpfAC4qP+EtAB8ATDVscUg6qHPGwBG1iEBIEMC+JjwJh0fAIYnAPVfAjAA6DUG2MMe+sQBYGAderVMCAATE8DHjFZ6ggAQ9HsVqth8AaAJkLH9nz0AjNtZBYD4BPDZQdUNAENXy657Pk8NAE2AjK//2QPAuJ1VAIhOAJ8eU+EAMHC17LmGAOp/qybAPfT8cgeAYQlMAAjOvp8fUuUAMGq1/P3fc1p9AVC3CTC3KIS+/ucPAKO+shIAYhPAbdaFThIAxqzW3XarBeALgGzu5y3/BQLAiKL88jILAHNW45X1rx0ARiSAm71WAjAAaBQBEiT+/AHg/dV/fZkFgBnL8Vr+Kh4A3m4Vxr8MMM/mCwBzgIwNvwIB4M3V/8oyCwATGtsv1ujqAeDNu0f7/9yeGgAiQMIHvkIAeKcJ8LX3KgFg/G3/6gWoHwAOu02pZ1X/q0eA+/nKfx13+2qlhW96BX42L9kOzm/zBUD3zdDzfuzeelf+R3gc8Prfeovw8V8LvgA4w/P9fkvUW+kxLRgpK/q9tmdle9gP+D+rXwBqA+zK0iH5y8t/fAToWtm+tFjKfx+bAUDLV1HV/+C1V/0TRIDOle3lDcKd2srTAOA8j/hD9Q/rA/xgf71b5gyxt31le2F/sCN0sxoA9AwBu6Q/PgT8Z/X3u9qfoKqpbK+tlpu1o80A4HyF6PHJZuhJp1EGUP0/fUewJbRlAHDa99F/J4H9z3+xMJyxqt11ur62Xn+zQK2tBgDASTLvP+Ou0gaf2QwAAKChpwEAAPSzGgAAQEObAQAANPQ0AACAflYDAABoaDMAAICGfm4IYN0AoF8L4Jt1A4B2CeC7VQOA6nwBAAANrRoAANDQpv4DQENPXwAAgBaALwAAQAIwAACAc/IFAAA0tGoAAEBDm/oPAA09fQEAAFoAvgAAAC0AAwAAOCcDAABoaDUAAICGnv4EAAA0ZAAAAA1tBgAA0NDTAAAAGjIAAICGVgMAAGjoaQAAAA0ZAABAQ5sBAAA09DQAAICG1H8A0APwAwAAaNgD8P4PAP16AOo/ALSx/hUBfvtmLQCgk1/+YBUAAAAAAAAAAAAAAAAAAAAAAAAAAAAAAAAAAAAAAAAAAAAAAAAAAAAAAAAAAAAAAAAAAAAAAAAAAAAAAAAAAAAAAAAAAAAAAAAAAAAAAAAAAAAAAAAAAAAAAAAAAAAAAAAAAAAAAAAAAAAAAAAAAAAAAAAAAAAAAAAAAAAAAAAAAAAAAAAAAAAAAAAAAAAAAAAAAAAAAAAAAAAAAAAAAAAAAAAAAAAAAAAAAAAAAAAAAAAAAAAAAAAAAAAAAAAAAAAAAAAAAAAAAAAAAAAAAAAAAAAAAAAAAAAAAAAAAAAAAAAAAAAAAAAAAAAAAAAAAAAA+J09OBAAAAAAAPJ/bQRVVVVVVVVVVVVVVVVVVVVVVVVVVVVVVVVVVVVVVVVVVVVVVVVVVVVVVVVVVVVVVVVVVVVVVVVVVVVVVVVVVVVVVVVVVVVVVVVVVVVVVVVVVVVVVVVVVVVVVVVVVVVVVVVVVVVVVVVVVVVVVVVVVVVVVVVVVVVVVVVVVVVVVVVVVVVVVVVVVVVVVVVVVVVVVVVVVVVVVVVVVVVVVVVVVVVVVVVVVVVVVVVVVVVVVVVVVVVVVVVVVVVVVVVVVVVVVVVVVVVVVVVVVVVVVVVVVVVVVVVVVVVVVVVVVVVVVVVVVVVVVVVVVVVVVVVVVVVVVVVVVVVVVVVVVVVVVVVVVVVVVVVVVVVVVVVVVVVVVVVVVVVVVVVVVVVVVVVVVVVVVVVVVVVVVVVVVVVVVVVVVVVVVVVVVVVVVVVVVVVVVVVVVVVVVVVVVVVVVVVVVVVVVVVVVVVVVVVVVVVVVVVVVVVVVVVVVVVVVVVVVVVVVVVVVVVVVVVVVVVVVVVVVVVVVVVVVVVVVVVVVVVVVVVVVVVVVVVVVVVVVVVVVVVVVVVVVVVVVVVVVVVVVVVVVVVVVVVVVVVVVVVVVVVVVVVVVVVVVVVVVVVVVVVVVVVVVVVVVVVVVVVVVVVVVVVVVVVVVVVVVVVVVVVVVVVVVVVVVVVVVVVVVVVVVVVVVVVVVVVVFfbgQAAAAAAAyP+1EVRVVVVVVVVVVVVVVVVVVVVVVVVVVVVVVVVVVVVVVVVVVVVVVVVVVVVVVVVVVVVVVVVVVVVVVVVVVVVVVVVVVVVVVVVVVVVVVVVVVVVVVVVVVVVVVVVVVVVVVVVVVVVVVVVVVVVVVVVVVVVVVVVVVVVVVVVVVVVVVVVVVVVVVVVVVVVVVVVVVVVVVVVVVVVVVVVVVVVVVVVVVVVVVVVVVVVVVVVVVVVVVVVVVVVVVVVVVVVVVVVVVVVVVVVVVVVVVVVVVVVVVVVVVVVVVVVVVVVVVVVVVVVVVVVVVVVVVVVVVVVVVVVVVVVVVVVVVVVVVVVVVVVVVVVVVVVVVVVVVVVVVVVVVVVVVVVVVVVVVVVVVVVVVVVVVVVVVVVVVVVVVVVVVVVVVVVVVVVVVVVVVVVVVVVVVVVVVVVVVVVVVVVVVVVVVVVVVVVVVVVVVVVVVVVVVVVVVVVVVVVVVVVVVVVVVVVVVVVVVVVVVVVVVVVVVVVVVVVVVVVVVVVVVVVVVVVVVVVVVVVVVVVVVVVVVVVVVVVVVVVVVVVVVVVVVVVVVVVVVVVVVVVVVVVVVVVVVVVVVVVVVVVVVVVVVVVVVVVVVVVVVVVVVVVVVVVVVVVVVVVVVVVVVVVVVVVVVVVVVVVVVVVVVVVVVVVVVVVVVVVVVVVVVVVVVVVVVVVVVVVV2IMDAQAAAAAg/9dGUFVVVVVVVVVVVVVVVVVVVVVVVVVVVVVVVVVVVVVVVVVVVVVVVVVVVVVVVVVVVVVVVVVVVVVVVVVVVVVVVVVVVVVVVVVVVVVVVVVVVVVVVVVVVVVVVVVVVVVVVVVVVVVVVVVVVVVVVVVVVVVVVVVVVVVVVVVVVVVVVVVVVVVVVVVVVVVVVVVVVVVVVVVVVVVVVVVVVVVVVVVVVVVVVVVVVVVVVVVVVVVVVVVVVVVVVVVVVVVVVVVVVVVVVVVVVVVVVVVVVVVVVVVVVVVVVVVVVVVVVVVVVVVVVVVVVVVVVVVVVVVVVVVVVVVVVVVVVVVVVVVVVVVVVVWpjfIgAAAHIklEQVRVVVVVVVVVVVVVVVVVVVVVVVVVVVVVVVVVVVVVVVVVVVVVVVVVVVVVVVVVVVVVVVVVVVVVVVVVVVVVVVVVVVVVVVVVVVVVVVVVVVVVVVVVVVVVVVVVVVVVVVVVVVVVVVVVVVVVVVVVVVVVVVVVVVVVVVVVVVVVVVVVVVVVVVVVVVVVVVVVVVVVVVVVVVVVVVVVVVVVVVVVVVVVVVVVVVVVVVVVVVVVVVVVVVVVVVVVVVVVVVVVVVVVVVVVVVVVVVVVVVVVVVVVVVVVVVVVVVVVVVVVVVVVVVVVVVVVVVVVVVVVVVVVVVVVVVVVVVVVVVVVVVVVVVVVVVVVVVVVVVVVVVVVVVVVVVVhDw4EAAAAAID8XxtBVVVVVVVVVVVVVVVVVVVVVVVVVVVVVVVVVVVVVVVVVVVVVVVVVVVVVVVVVVVVVVVVVVVVVVVVVVVVVVVVVVVVVVVVVVVVVVVVVVVVVVVVVVVVVVVVVVVVVVVVVVVVVVVVVVVVVVVVVVVVVVVVVVVVVVVVVVVVVVVVVVVVVVVVVVVVVVVVVVVVVVVVVVVVVVVVVVVVVVVVVVVVVVVVVVVVVVVVVVVVVVVVVVVVVVVVVVVVVVVVVVVVVVVVVVVVVVVVVVVVVVVVVVVVVVVVVVVVVVVVVVVVVVVVVVVVVVVVVVVVVVVVVVVVVVVVVVVVVVVVVVVVVVVVVVVVVVVVVVVVVVVVVVVVVVVVVVVVVVVVVVVVVVVVVVVVVVVVVVVVVVVVVVVVVVVVVVVVVVVVVVVVVVVVVVVVVVVVVVVVVVVVVVVVVVVVVVVVVVVVVVVVVVVVVVVVVVVVVVVVVVVVVVVVVVVVVVVVVVVVVVVVVVVVVVVVVVVVVVVVVVVVVVVVVVVVVVVVVVVVVVVVVVVVVVVVVVVVVVVVVVVVVVVVVVVVVVVVVVVVVVVVVVVVVVVVVVVVVVVVVVVVVVVVVVVVVVVVVVVVVVVVVVVVVVVVVVVVVVVVVVVVVVVVVVVVVVVVVVVVVVVVVVVVVVVVVVVVVVVVVVVVVVVVVVVVVVVVVVVVVYU9OBAAAAAAAPJ/bQRVVVVVVVVVVVVVVVVVVVVVVVVVVVVVVVVVVVVVVVVVVVVVVVVVVVVVVVVVVVVVVVVVVVVVVVVVVVVVVVVVVVVVVVVVVVVVVVVVVVVVVVVVVVVVVVVVVVVVVVVVVVVVVVVVVVVVVVVVVVVVVVVVVVVVVVVVVVVVVVVVVVVVVVVVVVVVVVVVVVVVVVVVVVVVVVVVVVVVVVVVVVVVVVVVVVVVVVVVVVVVVVVVVVVVVVVVVVVVVVVVVVVVVVVVVVVVVVVVVVVVVVVVVVVVVVVVVVVVVVVVVVVVVVVVVVVVVVVVVVVVVVVVVVVVVVVVVVVVVVVVVVVVVVVVVVVVVVVVVVVVVVVVVVVVVVVVVVVVVVVVVVVVVVVVVVVVVVVVVVVVVVVVVVVVVVVVVVVVVVVVVVVVVVVVVVVVVVVVVVVVVVVVVVVVVVVVVVVVVVVVVVVVVVVVVVVVVVVVVVVVVVVVVVVVVVVVVVVVVVVVVVVVVVVVVVVVVVVVVVVVVVVVVVVVVVVVVVVVVVVVVVVVVVVVVVVVVVVVVVVVVVVVVVVVVVVVVVVVVVVVVVVVVVVVVVVVVVVVVVVVVVVVVVVVVVVVVVVVVVVVVVVVVVVVVVVVVVVVVVVVVVVVVVVVVVVVVVVVVVVVVVVVVVVVVVVVVVVVVVVVVVVVVVVVVVVVVVVVVVVVlfbgkAAAAABA0P/XnjACAAAAAAAAAAAAAAAAAAAAAAAAAAAAAAAAAAAAAAAAAAAAAAAAAAAAAAAAAAAAAAAAAAAAAAAAAAAAAAAAAAAAAAAAAAAAAAAAAAAAAAAAAAAAAAAAAAAAAAAAAAAAAAAAAAAAAAAAAAAAAAAAAAAAAAAAAAAAAAAAAAAAAAAAAAAAAAAAAAAAAAAAAAAAAAAAAAAAAAAAAAAAAAAAAAAAAAAAAAAAAAAAAAAAAAAAAAAAAAAAAAAAAAAAAAAAAAAAAAAAAAAAAAAAAAAAAAAAAAAAAAAAAAAAAAAAAAAAAAAAAAAAAAAAAAAAAAAAAAAAAAAAAAAAAAAAAAAAAAAAAAAAAAAAAAAAAAAAAAAAAAAAAAAAAAAAAAAAAAAAAAAAAAAAAAAAAAAAAAAAAAAAAAAAAAAAAAAAAAAAAAAAAAAAAAAAAAAAAAAAAAAAAAAAAAAAAAAAAAAAAAAAAAAAAAAAAAAAAAAAAAAAAAAAAAAAAAAAAAAAAAAAAAAAAAAAAAAAAAAAAAAAAAAAAAAAAAAAAAAAAAAAAAAAAAAAAAAAAAAAAAAAAAAAAAAAAAAAAAAAAAAAAAAAAAAAAAAAAAAAAAAAAAAAAAAAAAAAAAAAAAAAAAAAAAAAAAAAAAAAAAAAAAAAAAAAAAAAADwC4UiC6tV839MAAAAASUVORK5CYII=;" vertex="1" parent="1">
          <mxGeometry x="503.63" y="402" width="68.53" height="70" as="geometry" />
        </mxCell>
        <mxCell id="jbPWZQVVDv3tzskfTXxq-15" value=".gitlab-ci.yml" style="text;html=1;align=center;verticalAlign=middle;whiteSpace=wrap;rounded=0;" vertex="1" parent="1">
          <mxGeometry x="498" y="445" width="80" height="20" as="geometry" />
        </mxCell>
        <mxCell id="jbPWZQVVDv3tzskfTXxq-16" value="Run test + Notify Result" style="label;whiteSpace=wrap;html=1;image=img/clipart/Gear_128x128.png;strokeColor=#FFFFFF;" vertex="1" parent="1">
          <mxGeometry x="440" y="370" width="200" height="40" as="geometry" />
        </mxCell>
        <mxCell id="jbPWZQVVDv3tzskfTXxq-17" value="git push to any branch" style="text;html=1;align=center;verticalAlign=middle;whiteSpace=wrap;rounded=0;" vertex="1" parent="1">
          <mxGeometry x="310" y="394" width="120" height="20" as="geometry" />
        </mxCell>
        <mxCell id="jbPWZQVVDv3tzskfTXxq-20" value="" style="rounded=0;whiteSpace=wrap;html=1;" vertex="1" parent="1">
          <mxGeometry x="183" y="520" width="510" height="240" as="geometry" />
        </mxCell>
        <mxCell id="jbPWZQVVDv3tzskfTXxq-23" value="branch dev" style="label;whiteSpace=wrap;html=1;image=img/clipart/Gear_128x128.png;strokeColor=#FFFFFF;" vertex="1" parent="1">
          <mxGeometry x="193" y="550" width="130" height="10" as="geometry" />
        </mxCell>
        <mxCell id="jbPWZQVVDv3tzskfTXxq-25" value="branch main" style="label;whiteSpace=wrap;html=1;image=img/clipart/Gear_128x128.png;strokeColor=#FFFFFF;" vertex="1" parent="1">
          <mxGeometry x="441" y="550" width="130" height="10" as="geometry" />
        </mxCell>
        <mxCell id="jbPWZQVVDv3tzskfTXxq-26" value="" style="endArrow=classic;html=1;rounded=0;exitX=0.952;exitY=0.819;exitDx=0;exitDy=0;exitPerimeter=0;entryX=0.114;entryY=0.724;entryDx=0;entryDy=0;entryPerimeter=0;dashed=1;" edge="1" parent="1" source="jbPWZQVVDv3tzskfTXxq-23" target="jbPWZQVVDv3tzskfTXxq-25">
          <mxGeometry relative="1" as="geometry">
            <mxPoint x="353" y="590" as="sourcePoint" />
            <mxPoint x="453" y="590" as="targetPoint" />
          </mxGeometry>
        </mxCell>
        <mxCell id="jbPWZQVVDv3tzskfTXxq-27" value="merge" style="edgeLabel;resizable=0;html=1;;align=center;verticalAlign=middle;" connectable="0" vertex="1" parent="jbPWZQVVDv3tzskfTXxq-26">
          <mxGeometry relative="1" as="geometry">
            <mxPoint x="-2" y="-10" as="offset" />
          </mxGeometry>
        </mxCell>
        <mxCell id="jbPWZQVVDv3tzskfTXxq-30" value="Start deploy&amp;nbsp;&lt;div&gt;+ upgrade all tenant&lt;/div&gt;" style="label;whiteSpace=wrap;html=1;image=img/clipart/Gear_128x128.png;strokeColor=#FFFFFF;" vertex="1" parent="1">
          <mxGeometry x="441" y="705" width="182" height="30" as="geometry" />
        </mxCell>
        <mxCell id="jbPWZQVVDv3tzskfTXxq-32" value="Run test + Notify Result" style="label;whiteSpace=wrap;html=1;image=img/clipart/Gear_128x128.png;strokeColor=#FFFFFF;" vertex="1" parent="1">
          <mxGeometry x="432" y="615" width="200" height="40" as="geometry" />
        </mxCell>
        <mxCell id="jbPWZQVVDv3tzskfTXxq-33" value="" style="endArrow=classic;html=1;rounded=0;dashed=1;entryX=0.5;entryY=0;entryDx=0;entryDy=0;exitX=0.7;exitY=1.486;exitDx=0;exitDy=0;exitPerimeter=0;" edge="1" parent="1" source="jbPWZQVVDv3tzskfTXxq-25" target="jbPWZQVVDv3tzskfTXxq-32">
          <mxGeometry width="50" height="50" relative="1" as="geometry">
            <mxPoint x="523" y="565" as="sourcePoint" />
            <mxPoint x="523" y="640" as="targetPoint" />
          </mxGeometry>
        </mxCell>
        <mxCell id="jbPWZQVVDv3tzskfTXxq-34" value="" style="endArrow=classic;html=1;rounded=0;dashed=1;entryX=0.5;entryY=0;entryDx=0;entryDy=0;exitX=0.5;exitY=1;exitDx=0;exitDy=0;" edge="1" parent="1" source="jbPWZQVVDv3tzskfTXxq-32" target="jbPWZQVVDv3tzskfTXxq-30">
          <mxGeometry width="50" height="50" relative="1" as="geometry">
            <mxPoint x="542" y="575" as="sourcePoint" />
            <mxPoint x="542" y="625" as="targetPoint" />
          </mxGeometry>
        </mxCell>
        <mxCell id="jbPWZQVVDv3tzskfTXxq-35" value="" style="shape=image;verticalLabelPosition=bottom;labelBackgroundColor=default;verticalAlign=top;aspect=fixed;imageAspect=0;image=data:image/png,iVBORw0KGgoAAAANSUhEUgAAEAAAABAABAMAAAAAjTkkAAAAFVBMVEVHcEwXEyHwYicXEyHiQyn8bSb8oyZf3ppJAAAAA3RSTlMAdJ6mksZvAAAgAElEQVR42uzBAQEAAACAkP6v7ggKAAAAAAAAAAAAAAAAAAAAAAAAAAAAAAAAAAAAAAAAAAAAAAAAAAAAAAAAAAAAAAAAAAAAAAAAAAAAAAAAAAAAAAAAAAAAAAAAAAAAAAAAAAAAAAAAAAAAAAAAAAAAAAAAAAAAAAAAAAAAAAAAAAAAAAAAAAAAAAAAAAAAAAAAAAAAAAAAAAAAAAAAAAAAAAAAAAAAAAAAAAAAAAAAAAAAAAAAAAAAAAAAAAAAAAAAAAAAAAAAAAAAAAAAAAAAAAAAAAAAAAAAAAAAAAAAAAAAAAAAAAAAAAAAAAAAAAAAAAAAAAAAAAAAAAAAAAAAAAAAAAAAAAAAAAAAAAAAAAAAAAAAAAAAAAAAAAAAAAAAAAAAAAAAAAAAAAAAAAAAAAAAAAAAAAAAAAAAAAAAAAAAAAAAAAAAAAAAAAAAAAAAAAAAAAAAAAAAAAAAAAAAAAAAAAAAAAAAAAAAAAAAAAAAAAAAAAAAAAAAAAAAAAAAAAAAAAAAAAAAAAAAAAAAAAAAAAAAAAAAAAAAAAAAAAAAAAAAAAAAAAAAAAAAAAAAAAAAAAAAAAAAAAAAAAAAAAAAAAAAAAAAAAAAAAAAAAAAAAAAAAAAAAAAAAAAAAAAAAAAAAAAAAAAAAAAAAAAAAAAAAAAAAAAAAAAAAAAAAAAAAAAAAAAAAAAAAAAAAAAgNmDAwEAAAAAIP/XRlBVVVVVVVVVVVVVVVVVVVVVVVVVVVVVVVVVVVVVVVVVVVVVVVVVVVVVVVVVVVVVVVVVVVVVVVVVVVVVVVVVVVVVVVVVVVVVVVVVVVVVVVVVVVVVVVVVVVVVVVVVVVVVVVVVVVVVVVVVVVVVVVVVVVVVVVVVVVVVVVVVVVVVVVVVVVVVVVVVVVVVVVVVVVVVVVVVVVVVVVVVVVVVVVVVVVVVVVVVVVVVVVVVVVVVVVVVVVVVVVVVVVVVVVVVVVVVVVVVVVVVVVVVVVVVVVVVVVVVVVVVVVVVVVVVVVVVVVVVVVVVVVVVVVVVVVVVVVVVVVVVVVVVVVVVVVVVVVVVVVVVVVVVVVVVVVVVVVVVVVVVVVVVVVVVVVVVVVVVVVVVVVVVVVVVVVVVVVVVVVVVVVVVVVVVVVVVVVVVVVVVVVVVVVVVVVVVVVVVVVVVVVVVVVVVVVVVVVVVVVVVVVVVVVVVVVVVVVVVVVVVVVVVVVVVVVVVVVVVVVVVVVVVVVVVVVVVVVVVVVVVVVVVVVVVVVVVVVVVVVVVVVVVVVVVVVVVVVVVVVVVVVVVVVVVVVVVVVVVVVVVVVVVVVVVVVVVVVVVVVVVVVVVVVVVVVVVVVVVVVVVVVVVVVVVVVVVVVVVVVVVVVVVVVVVVVVVVVVVVVVVVVVVVVVVVVVVVVVVVVVVYQ8OBAAAAACA/F8bQVVVVVVVVVVVVVVVVVVVVVVVVVVVVVVVVVVVVVVVVVVVVVVVVVVVVVVVVVVVVVVVVVVVVVVVVVVVVVVVVVVVVVVVVVVVVVVVVVVVVVVVVVVVVVVVVVVVVVVVVVVVVVVVVVVVVVVVVVVVVVVVVVVVVVVVVVVVVVVVVVVVVVVVVVVVVVVVVVVVVVVVVVVVVVVVVVVVVVVVVVVVVVVVVVVVVVVVVVVVVVVVVVVVVVVVVVVVVVVVVVVVVVVVVVVVVVVVVVVVVVVVVVVVVVVVVVVVVVVVVVVVVVVVVVVVVVVVVVVVVVVVVVVVVVVVVVVVVVVVVVVVVVVVVVVVVVVVVVVVVVVVVVVVVVVVVVVVVVVVVVVVVVVVVVVVVVVVVVVVVVVVVVVVVVVVVVVVVVVVVVVVVVVVVVVVVVVVVVVVVVVVVVVVVVVVVVVVVVVVVVVVVVVVVVVVVVVVVVVVVVVVVVVVVVVVVVVVVVVVVVVVVVVVVVVVVVVVVVVVVVVVVVVVVVVVVVVVVVVVVVVVVVVVVVVVVVVVVVVVVVVVVVVVVVVVVVVVVVVVVVVVVVVVVVVVVVVVVVVVVVVVVVVVVVVVVVVVVVVVVVVVVVVVVVVVVVVVVVVVVVVVVVVVVVVVVVVVVVVVVVVVVVVVVVVVVVVVVVVVVVVVVVVVVVVVVVVVVVVVVVWFPTgQAAAAAADyf20EVVVVVVVVVVVVVVVVVVVVVVVVVVVVVVVVVVVVVVVVVVVVVVVVVVVVVVVVVVVVVVVVVVVVVVVVVVVVVVVVVVVVVVVVVVVVVVVVVVVVVVVVVVVVVVVVVVVVVVVVVVVVVVVVVVVVVVVVVVVVVVVVVVVVVVVVVVVVVVVVVVVVVVVVVVVVVVVVVVVVVVVVVVVVVVVVVVVVVVVVVVVVVVVVVVVVVVVVVVVVVVVVVVVVVVVVVVVVVVVVVVVVVVVVVVVVVVVVVVVVVVVVVVVVVVVVVVVVVVVVVVVVVVVVVVVVVVVVVVVVVVVVVVVVVVVVVVVVVVVVVVVVVVVVVVVVVVVVVVVVVVVVVVVVVVVVVVVVVVVVVVVVVVVVVVVVVVVVVVVVVVVVVVVVVVVVVVVVVVVVVVVVVVVVVVVVVVVVVVVVVVVVVVVVVVVVVVVVVVVVVVVVVVVVVVVVVVVVVVVVVVVVVVVVVVVVVVVVVVVVVVVVVVVVVVVVVVVVVVVVVVVVVVVVVVVVVVVVVVVVVVVVVVVVVVVVVVVVVVVVVVVVVVVVVVVVVVVVVVVVVVVVVVVVVVVVVVVVVVVVVVVVVVVVVVVVVVVVVVVVVVVVVVVVVVVVVVVVVVVVVVVVVVVVVVVVVVVVVVVVVVVVVVVVVVVVVVVVVVVVVVVVVVVVVVVVVVVVVVVVVRX24EAAAAAAAMj/tRFUVVVVVVVVVVVVVVVVVVVVVVVVVVVVVVVVVVVVVVVVVVVVVVVVVVVVVVVVVVVVVVVVVVVVVVVVVVVVVVVVVVVVVVVVVVVVVVVVVVVVVVVVVVVVVVVVVVVVVVVVVVVVVVVVVVVVVVVVVVVVVVVVVVVVVVVVVVVVVVVVVVVVVVVVVVVVVVVVVVVVVVVVVVVVVVVVVVVVVVVVVVVVVVVVVVVVVVVVVVVVVVVVVVVVVVVVVVVVVVVVVVVVVVVVVVVVVVVVVVVVVVVVVVVVVVVVVVVVVVVVVVVVVVVVVVVVVVVVVVVVVVVVVVVVVVVVVVVVVVVVVVVVVVVVVVVVVVVVVVVVVVVVVVVVVVVVVVVVVVVVVVVVVVVVVVVVVVVVVVVVVVVVVVVVVVVVVVVVVVVVVVVVVVVVVVVVVVVVVVVVVVVVVVVVVVVVVVVVVVVVVVVVVVVVVVVVVVVVVVVVVVVVVVVVVVVVVVVVVVVVVVVVVVVVVVVVVVVVVVVVVVVVVVVVVVVVVVVVVVVVVVVVVVVVVVVVVVVVVVVVVVVVVVVVVVVVVVVVVVVVVVVVVVVVVVVVVVVVVVVVVVVVVVVVVVVVVVVVVVVVVVVVVVVVVVVVVVVVVVVVVVVVVVVVVVVVVVVVVVVVVVVVVVVVVVVVVVVVVVVVVVVVVVVVVVVVVVVVVVVVVdiDAwEAAAAAIP/XRlBVVVVVVVVVVVVVVVVVVVVVVVVVVVVVVVVVVVVVVVVVVVVVVVVVVVVVVVVVVVVVVVVVVVVVVVVVVVVVVVVVVVVVVVVVVVVVVVVVVVVVVVVVVVVVVVVVVVVVVVVVVVVVVVVVVVVVVVVVVVVVVVVVVVVVVVVVVVVVVVVVVVVVVVVVVVVVVVVVVVVVVVVVVVVVVVVVVVVVVVVVVVVVVVVVVVVVVVVVVVVVVVVVVVVVVVVVVVVVVVVVVVVVVVVVVVVVVVVVVVVVVVVVVVVVVVVVVVVVVVVVVVVVVVVVVVVVVVVVVVVVVVVVVVVVVVVVVVVVVVVVVVVVVVVVVVVVVVVVVVVVVVVVVVVVVVVVVVVVVVVVVVVVVVVVVVVVVVVVVVVVVVVVVVVVVVVVVVVVVVVVVVVVVVVVVVVVVVVVVVVVVVVVVVVVVVVVVVVVVVVVVVVVVVVVVVVVVVVVVVVVVVVVVVVVVVVVVVVVVVVVVVVVVVVVVVVVVVVVVVVVVVVVVVVVVVVVVVVVVVVVVVVVVVVVVVVVVVVVVVVVVVVVVVVVVVVVVVVVVVVVVVVVVVVVVVVVVVVVVVVVVVVVVVVVVVVVVVVVVVVVVVVVVVVVVVVVVVVVVVVVVVVVVVVVVVVVVVVVVVVVVVVVVVVVVVVVVVVVVVVVVVVVVVVVVVVVVVVVVVVVYe8Ok5tGgjCArhXx3ylfwEXpAEnpAipqjsD9z7Isy7JJsB1Jhlju770T0MoU/U1PEwAAAAAAAAAAAAAAAAAAAAAAAAAAAAAAAAAAAAAAAAAAAAAAAAAAAAAAAAAAAAAAAAAAAAAAAAAAAAAAAAAAAAAAAAAAAAAAAAAAAAAAAAAAAAAAAAAAAAAAAAAAAAAAAAAAAAAAAAAAAAAAAAAAAAAAAAAAAAAAAAAAAAAAAAAAAAAAAAAAAAAAAAAAAAAAAAAAAAAAAAAAAAAAAAAAAAAAAAAAAAAAAAAAAAAAAAAAAAAAAAAAAAAAAAAAAAAAAAAAAAAAAAAAAAAAAAAAAAAAAAAAAAAAAAAAAAAAAP6wz58/H1Nr774V7wQAENgBh/ZdZBvs/q39y9E5ACBL3/4T2AXb/8U7CQAkGdoLYQlg97J4CQCAyPt/YAJ4XbsEAECMrr2RVPzwpvbJeQAgxNeW2wT7t7WnvYAAEGtowU3w19o9AgAQoWvBTfBTa0YAABgApDXBU7U3ZwKAzAFAzAjg08niJ6cCgPL6kz0wZATQktMPANFO98CMW/CZ8GMLAIDyujM9MOIhfEhOPwBEO9cDI27B52r3BgBAag9MuAX3rXkDACDS2ReAhFvwkJx+AIh2/hIcsATQmjcAADKdvwQHjMFbcvoBINqFHjhVr70TAAAQAPLG4BeeP2wBAhB7CS4fAIbk8QcA0S5dgsuPwYdmCxCATJd6YPkxeBMAABAA4gLApecPW4AAxF6C25QcAI4OBwChPbD4GLxPTj8AROuTA8AgAAAQ6nIPbMnF2wIEIDYAHEsX35otQAAyNQHAFiAAcbp3euCkeACop0/ugb0AAIAAkLcIF108ANHe2QGsvQgXXTwA0VpyD3y3+KMDAkBJXXQPFAAAEADyFuGiiwcgWp/cA98v3hYgADUNyT3w/QBgCxCAmlpyDxwEAAAyddEBYEbxR2cEgNAAULcHzih+ckYAKKhP7oFz0o8tQAAqGpIDQC8AABCqJffAOQHAFiAAqQGgbA+cM/6wBQhAQV10AJhV/OSUAFDOrCF42Utwa5YAAIg0JF+COwEAAAEgLwDMG3/YAkz1+N3ehwBKasmX4JkB4OiY5Nkdxp+eH30PoJx5Q/Cql+B54482OSdxd//xDREACL0DFw0ATQDg1O1/PEEEADIDwDE5ANgCzHIYT3r2ZYBKhuQAMPf9wxZglPGc572PA8TdgdsUHQCODkqM3XiBBADktcCSU/BeAGBJ/5cAgMAWWDIADM0WIEv6vwQA5AWAks/gQ7MFyCvjKAEAGWa3wJJT8NZsAbLk/m8TEAhsgQUDQBddPb86jHMSgO8EZLXASQBA///Hky8FRLXAgs/gfXT84RfjTHufCkhqgQUDwBBdPWv7v0cAIKsFNtVT2m52APDfAgD3b0EHLPgM3gQA1vR/jwCAAHDXuuz4w2uHJQHAIwCQ1AIn1WMA8IMPBty3fkkL/KJ6DACMAIAShugWOAgArBwAGAEASS2wqR4DACMAoIRFHbDcHlx29Vw1ADACAO5aF90CF1Y/OS8GAEYAQBF9dAsUAPhpHI0AgCTLHsGr7cH10dXz0sOaAPDkuwECQEL1tgANALwBAFW06Ba4NAAcHZiqdqsCgN8HDNytrkW3wKXVT05MVQ/rAsCTLwfcqV4AEAD4a+ULgDVAICgAlGqBi+cftgDft3v86Z7+1GsDwN5PHLhPQ3QAWBx/bAFe7Pun9+TuIgk8rA0AT370wH1q0Xfg5QHg6Mic7P3vr8tvPAWMozcAIMriGXitO/AgAFzf/Bf8Ar3thoDd+gCwdwgAAaD+/KNNzsyr7r/8H85vMwMIAECa5TPwUnfg1mwBfmT3324GOKwPAH4XEHCXhug78Ir5hy3AHx6vaJnfmubWrs0CAJCmRQeAXgD44Mv/y32ATRV0TSV7BwLIuAIXGoKvCQBHp2Z3GH+Lx+10zgcBABAAku7AQ7MFeLP2v6mXgKsCQME3gMfVpKGyP1ufrpw+OwC0Zgvwhu1/Q1OAgwDwm77Hk79Vq/5sfbpy1lyBCw3BW7MEcNP2v5n2eV0JmoQAIAAQ0gGnKtV3AsAH3pO3vA64u66AvZ+0ACAAIADclVUPILlbgI/jH3PrDnplAKjX9AQAAUAAKG/dFbjMK3ifnX8W9sjD+Ac93zYCPAgAAoAAIACEWdcBywzBh2YLcAPX/w28A1wZbuptAQoAAoAAUN6QHQCaALCJ6//thwACgAAgAAgAAkDUK3hrtgC3cf2/9RDg2j+5JiEACACEdMCpRvVda7YAN3L9v3ECEAAEAAFAAAjTZQeAPrv82f1//ED7+yxx/zd795bkOG5EYdi8LEAMbkAPXEBVcAMMBfa/prG77fBMRN9KRAJ5cP7zZL+MSJSI/JAA1aP90QEAAAAAo+fdCvjyvn0vAGxn03RpAgAAAAAAAAAAsNoFPwqnAAMrgdCBuuXuRX/wZwcAAIB4VMBBAFAKpwCjl8YabwMAAAAAAACAW96ugE9un/o/0EEAAAAAAAAAMMv8dgW8vG/fBQCd6n97AeyK+xYAgAAA8n5WAMApwMh1scxRQAAAAAAAAAAATsfgzG8/virqCAAAAAAAAADMcnhXwPdvvzBNjPUyAAAAAAAAAJileFfAGwB4MksMJQAAAAAAAADwyly8K2ABAInrf9OiCgAAAAAAAADAqALeuf2LOWIoAQAAAAAAAIBXVu8KeAcAL6aIoQRw/375BgAAAECUcnhXwDv+KcwQQwkAAAAAAAAAvFK8AXAAgOz1v5kAAAAAAAAAAAAYVcBbAHgyP4wkAM4AAAAAAACsMhfvCnjr9q9xvxfLedoJAAAAAAAAAKyyegPgnn9ezA6t8qFw0wAAAAAAopTDewkMAH6Y6UyXLfGUCAAAAAAgiineFfBeA2TUU4AJ63+LfxsQAAAAAAAAAIAPAO41QEY9BXielgIAAAAAAAAAp9xrgesvgW8C4KL+N0z0fd8++Dhc1QMAAAAAjJybLXD5JXApHAKovhBWFQAAAAAAAAA45fAGwAwAhOp/dIsdAAAAAAAAAIBND/wuAAY8BTidibPlvnUAAAAAABFK8V4C390BGe8UYOr6H3wQcEp9dQCAAACSawUsDoC7DRD1DkjNKV9fAAAAAAAAAGCU2ytg8R44ABCr/7HHALK/pgAACAAgmQDwlL7/UjgFWHUNrC0AAAAAAAAA8MnhDYDbOyCDnQIUqP+hffY9cXcCABAAQJKtgMtlDoAnc8I4AgAAAAAAAACbzOYAWAGAXv0PrLM3fwhgvKIHAAAAAAAAo26Cr+YA+memUyRb0hF4DDdBAAAAAADGTYUCKL0JfhROAerV/7hKCwAAAAAAADY5zAFQCqcAK0z24/yjALwEAAAAAABwSY0C+AQAQ2QRqv9h5eUWgm6eTZi2NxPYeAAAAAAADJu5RgG8zO//OcZ3YTpPBHBPQR+dPhsAEABAAMBXs5rff7W1b4c3AWKq3i0G3bwkAEAAAFErgC/uf4Asp1hi3gW8BYBefwIAQAAA+XpqnAFU3gR3v/9KhW+kNwE6kgQAEABAGqaYF8ACAFQbAFHz0I2B+Oj10QCAAADSqwA+uX/q/yibAEu/lgQAIACAtMtcpwBe3L/tXDDeJkC/jgQAIACAtMtqXgAr3f/LdyoYsAWwd7saAEAAAGmXw7wAAoDbq97xfgxg6XYxAIAAACIHgML90wAY58cAuk2LAIAAANIuxbwA1rr/p/bXYDllE7EJ0O1SAAABAKRZZvcCWOv+L+3vwSmcgOGYehU8AEAAAGmW1bwAzgDg3hw/Zgtg6jUrAgACAAgAULt/6VOA0ymdjyQTYwWJAAACAEizHOYFsBoAiuU0MOwmwNKpCAMAAgBIsxTzAlgNQMqnAMUbACHVr9OkCAAIACCtMrsDoN79XzQAzFsAH30+FgAQAEDeSr0OuOgKGABIvwIYdw5w6jMnAgACAIggACQLYMUOyMtvEhh6E2DvUu0AAAEApFUOAGB/CnCABkBIqekyJQIAAgBIqxTzFXDFDojsKcARGgAJWgB1ih0AIACACC6AJQFwAIAhGgAJWgCd/xoAgAAA0g8Aki3wmgC4aACM1QJYOtQ6AEAAAGmUmh1wyRVwcW+BDFP/O7cAar2GAAAIACCCC2BFAFTtgEi2QKZzmDx6Dk6tDwcABAAQwQVwuQAADYCxWgB7888GAAQAEEUACLbAq26BKLZABmoA9PxB4Hq/QwQACAAgigtgQQAc7i2QfSQABJSbqXX1BQAEABDFBbBgC/xwF9BQAIgogkvjOgcACAAgivVPsAVezAGwDFX/Q+rN0vZjAQABAESx/ukBYC7mLZCxGgAxVfC3Y1T1HyICAAQAEEkAXO4AUBPQYA2AoCq4N6z/AIAAAKJZ/+Ra4Ku5gEZrAARNS3u7+g8ACAAgmvVPDgCH9wAM1wCIKoN7uxIHAAgAIJL1r7gPwMvk4XdrAfxr+9nHbWlQBgAIACBdAfAUG4BiLaBpwPofVQenH06Un/U/DQAQAEA0658YAGbvARixAVB7S/6XTYAt4GMAAAEARLP+XQwADYAh9wC+EeAfk+XnFvIhAIAAANIia/X693IfgMvh0TdtAXwzwHcEfG5b1CcAAAIACABokMN5AAZtAKjPTACAAACiWf8KAwAAeke76AAAAgBIi9Qvf2KnAK0HYNT6H7sHAAAAAAAAACNkdgeA9QAM2wAILYUAAAAAAAAAAEZ4DcB6APaTFgAAAAAAAACYZnUHQMQAqJwCHLgBoN0CAAAEAJAGOYzrXxgAyujPPQAAAAAAAAAA+RTj+hcmIJVDAEMDQHlyAgAEAJD4zPYAKL4AWE4AAAAAAAEAAMD1NYCQAbhoAHAMEAAAAABAUmc1rn+BApI4BTGdJy0AAAAACABwzeEOgBgBSWyCtNsB+Nz+nW+16T//Y+PXAAEAAQCkf4rvAtgeAI1q/49q0tREAbp7AACAAACiCgChU4AxLRCFUxANdgB++c/lTVv4GYSH6mMJAAgAIOGZ7QEQNADXwA/9H6/9f2+QDQAAAAIASJ8ENcCFXgMorpsgwQ2A7Q9LUWwbAAAAAAIAyE9y+C6AY1sg+QEQegRw+8KFTDsAAAAEABAAMEoLJP8mSKLDd3EEUC09AIAAABKeYrsAjgbAM/mNx+0AfL5RhDZaAACAAADSNFENcJ1TgFEtkPQ9kLAdgK3xFDTkMUAAQAAAkV3/ygCguAIg0fI/siUh+lMAAIAAAKILgKc7AJJvgkyplv/fL2kHAACAAADSKoftAvi/idsDKYM+8ZHTwc4eAAAgAICor39VABDXAkneA8nZbp9oAQAAAgCI+vpX5DWA1ZRAEUcAa0zzEwAAAAQAEPHyJ3IK8DAFwJ6z/ke0Jh6KTyYAIACAAIDgFNMeSOK99j0nTAAAAAAAAGCoBK5/RV4DKJ4EWjKvs2sLAAAAAAIASNPydykMwFw8CbSn7rPvAAAAEABAhMufBABWUwAk32dnDwAAEABAhAEg8RrA6kmgJXf9rywAxfcAAAABAES4/EkA4PAcgT39Etv9PQAAQAAAES5/hRFIe9v5W+wTAAAABACQwIRWP4nXAIolAJb09b/uNQruAQAAAgAIAAjN7DkCVXcAoqrrAgAAAAEARLT8XYxA0tuuWv8f6eakEfYAAAABACQ0a2z5ezECOe9aZH99yr5LAQAAAAAgsjnsARA8AmWwh73x1D4Z7wEAAAIASGhK8TwDBwBElta77x4AACAAgEgD4MkIZLzpmjsAwZcKAAAAAQAkIrM9AMJH4BqqtnR4+m33AAAAAQAkMqtl+WsKgJTHIOrV/00GKwAAABAAQP6Ww7L8NSVQxhGYhBoA9bTyEHs4AQABAAQASI9AxlOAk1L9r3a1AAAAEABA/p/iWP4aA+A50KPeZ1bfPfcAAAABACQwcynupwDjR+DKd9Ni5+omoXYFAAAAAIBoZLUHwOwIgGo7AI9GF7xY7gEAAAIAiDYArtwj0AAA+Y5BLFIbAPVaFmI1CAAQAEACcziWv9YEyncM4pRrqS9KOxYAAAAAACKQYg+ABgRKtwsynXoL6l1MLAAAAAAAkjsN+t/ZXwMAABrr6TrX/JB6PAEAAQBEHADP1EPQYgSuUR70ntV0V+tZAAAAAABI5qz2AGhCoNcoD3rXDXUAAAAIACD1cjiuf9sDINkuSKUdAEm2AAAAQAAA+ZZS3E8BNumBJGuCqJ6oBwAAgAAAorX8BQDJAKB6oH532wMAAAQAEHEApH4NoMkmSLlS3bPqK/UTAAAABAAQqeVvagAUvybIdKr20t1+CggAEABAxJe/qV8DKH4GWk7VQrqIwgUAAAAAQFyr35V3BGZDAAifpjf7KSAAQAAAAQBhabQJkqoJIvyj+hVaAEplCAAQAEDUl7+JXwNY/Qw0ncKNdK9DAACAAACiXv0SnwI8/Ay0nMJVdNe1CwBgxgUAxLD6JQZA8QNAjSMAj14XPwlfOwAgAIAYAuBpD4BEBtJ+l24HAACAAAAiVP2urCMwFzsDif+azqJ88QCAAABiV/3SAmD1GwL1d+mdTgECAAIAiHz1ezEEL/mHPMlMvkjzBQAQAEBSpNkRgLynAA8/AKj/mN4EAAAAAQAEANxOsRuCCkcAOvfQjU4BAoBhs33L/4bm+/+zBcDfxiLHQHikYfV7MgRJhkD/PbpFegcDAFD6fzGEn12rXwcA/GQ0PgZFx9sAACAASURBVFFAeOaG1e9iCJIMwa7eALjfAtA5BQgAxsq0/dHofW4Pscnh3eq/pxwGk6wAYAUAgvP4DgAAgOLK/0tf0k3pyXpLQ3/yafQBxqh+L4YgxxBU2AHQLYtyR5YAwDDV/41ha2+AhgD4Yw190gYISsMzgFlPAfoNwX0AJFg/25wCBABDZNreftjaflWbAWBLPAg2KaRpntIlJVP1vLsH8PHV+fvNPO7+d9++0c8vXikAyLX479QEbwSAKbmDPDJTkg0BcP8IwACK+Wj0cY9ojNXKZ5NvkCUAtvt/nS3/7PCl8v/Op0AAAKCeK8NfXf8IYIW7+OIuBgAAAP3Kf0sCtADA1uahJb/LSklumwynAO8fAUgh8bt9DAAAAHTKfzsCxANg2sWnnnFyUJIbZwQA5HD4AgAAQPZMe9W/UQsChANgGmDyGSUUZEMA3J6TkkziTdsYAAAAdHjUOmyDRwPgdkuEJgAA4BRgz1kpyZe3KWMAAADo2P1vuAIOBkCFLzw/DFQrnAF0PAU4xg7A7akEAAAAoe5/sxVwLACqDAoCqBTOABqeArx9BCDLHD61dAwAAAD9l/8t6l8oACqhqMFOiEU4A2h4COB2yUnz9W15HwAAADTdZ+tW/yIBsEuMgE8ox4YA2BsWitR3AgAAQNZtto7bAIEA2DVGAACQgU8B3n0K/2LvXpLjRnIADItiaE9GXsAb7YvhM/Te0VF5/6v0eKbHbbf1KDIBJB4/LlDFRya+BFCSny18NdxCAAAAsOuyzbyPegBoUQxUJZgBrDgFmKYDMHopAAAA+GyyTS3EqQFAuiuCAEaDGcCCU4CL143HHAA3k00dAFQDQDN6Xpuzr29+WxDAYDADWBAAoxnH0w6+2lEGAAAAV/lfTQBKANBoiyAAAMAUoPH+lKfWCgAAgLsC23wB6ABA574ggKEgGRecAswEgCe7SwEAAED/jfSQAHUAEO/XEPmDGcCKU4CJOgAAAADUPf9rJUAVALSvCMBdMANYEABLqgW3ml0LAAAA3s7/OutRAwB6b/mBAAAAU4BWKdNZBwAAAIDK538VASgAYHHy2hK/BDOABacABxOOt/3b7GIAAADwd/7XOAIrAMDNe0v8HKTiglOADQAAAACQ5fyvIAB5ADTdG8D/BrwWzABWHAJI1QEY3FsOAAAAvNDazaIUB4C6jBgDAAAAwAQA7sptKwAAAMXzv/CqFAdANAFVCWYAC04BDmrc3fa9WG0cAAAAOM3/wkVwaQC0aAKqEswAFpwCHMw3/optAAAAVM//sutSGAAmoxE30vn5IBEXnAIczDfJdt4NAAAAB4U1VwIQBkALJyBGAIi0AGhmOSKCaAAAAEiR/yVpLguANdz1AwAi7xRgukrbanQ9AAAAeG0AyNpcFgAt3PVXCWYAK04Bpiu0LQAAAJD/BW+sKADsXm+aACeDGcCCU4CDtUqP77FRzgMAAMBvA0AyA0oCwPDWHAjgXJCGCwJgNUsRIY5fAAAAZMn/YqtTEgCWtZEbOR0AMAWomW5cLrEVAACA8g0AQQEIAsDWRgjgTDADWHEKcGyz2rIB4CsAAABZ8r/U+hQEQIsIoCLBDGDFKcCEP7VZAAAAoAEgt0DlALA4foPLBzOAFYcAMq4vmzMTAAAA8qQWjt0XAFpIAAEAIisAxkh+AwAAAAB4bQBINQHEALC4foWrB0m44BTgOn13cbYHAwAAkKYBIJQBxQAwAUc3EvuDwQxgxSnAlABYTTYMAAAA3BcARG6vGADCTkFUCGYAK04BtoyLawEAAID8L1YCkALAlDd7J7UzAgAAVDasAwAAAADguAEgs0qlADBHRxu5HQAwBfhO5OyvmWyXAAAA+C8ASNTphAAw6cVmCuCxIAUXnAJcctoaAAAACgBiJQAhAMzSESWAR4IZwIpTgMvco4XDgxgAAABz6ml+SwAyAJimI0oAjwQzgBUBsE49Wbi8LAAAAFIVAMYXqgwA5rVHKAEAAKYAKwFg2a8HAAAAuQoAwyUAEQBM1BElgAeCGcCKU4CNdWWPJwCQ8zVqbgFw1AYAJYAHggRccQqwsawAAABI3QAYLwGIAGDm5VMC+DSYASwJgJwzgAAAAFAAkCsBSABgLo8oAQAApgCFAXAAAAAAACIUAAaxLgGAuTyiBPBZMANYcQpwAQAAAACkLwAMLlYJAEy+fkoAnwQzgBWnABdUDQAAQP4CwFgJQAAAs19qSgCfBOm34hDACqoBAADIXwAYKwEIAGD67aEEAAAAgGiueQIAAAAAxCgADC3XcQAsoQFUIJgBLDkF2AAAAAAABQoAQ7c5AwC+kuQ/CmYAS04BNkgNAABAhQLAyHodB4CD66cH8FEwA1hyCpCxGgAAAGb30txnwGEAuPARWf6D6Pc7+Xdy9A4AAAAAiBgB8v9ACWAYAGtsAFUAwH8CAsxN/71/iVS43AAAAAAAUToAIyt2GADReyDp47n/N/4gD8+JP/53/79F2reeAAAAAABhCgATAbAEv/788dL/DqoAE+L+/7v/Z6TOJQAAAAAgUAHg+pIdBcAa73UuFq/9R1AFmHP6jwYAVhMAAACj114DAC349ZcCAFUA+97/jwi0cd0AAAAAAJEKAJfRPggAN/eHPeu96L8GaXlK+jefAgQAAAAAlCkAlAcAVct34rl3CDC3+j9lCpCJGgAAAOoA4OqtHgSAn/vDpvV2vPwGAEYBJqT/UABg1QAAAODreTkFQPjrrwgAigDa6f+N/G88BcivAAEAAChUALi6ascAsIS//vTx+hYAGAY0Pv6bTwEuRrkBAACAvABYAuX/i/d6DACegEQP4M3o7wR52mj4bw4AVgAAAABAnQ7A1WWbBwBsW6cAQBHA9Phv/TOA1fwoAQAAQLZX6WuosAfAEv/6s8dzfz/I1nbHf+spwJFMQy0NAACAaB2Ai+s2EQA4uLwRLx9kJIoAdsd/awA0AAAAAMC8RRSlBj4EgBb/+ksDgCKAYf63/RnAyNJk1QAAABCuAzABABlKIMnjtSMAB+V/cwDQSwMAAGBeGy1MAhwBgLcWCT2A8wCgDWBz/Lf+GQCVNAAAAEp1AK7d7REAuBMSG9dv8WlWQgBW+d/0ZwAAAAAAgFIdgGsrdwQADQB4j+f+QJC91cv/1gBYjM8RAAAAZHuXwnUALiXAEQCkKIEAAIoANvm/fwMAAAAA0AHwlAAHALCkEFDueOkIwEv+jwKAjWUDAABAvA7ApR7AAAAclkjYu64BAAEot/+tfwawsogAAAAo1gEwBoDDEgnVy3/Fa0cAXvJ/FACwagAAAIjYAbiC95CXyeYlDgBGAdXzv+XvABtrCAAAAH8AOPZ/AgAAAO3oHQF4aP9b/wyg2WQGAAAAkgJAYcJt33/7kL3Ne6opAUAP4DoAEIBy/gcAAAAAFC0A7O+8GcsOAOZOQWSO544A/OT//s3swWNoAAAA/ABg/+ijJAmwFQcAPYARADAKqJr/AQAAAAAFOwD7Z5+2AwB6ABrxcjJDUQPQzP8xALCxbAAAADBM/98/rk14rCkBQA9gCADUABTzv93vAPk7QAAAALjoABwPrqe9AAAOvZ8/AIA34/V0jqIGoJf/YwCAVaMIgGX/LNro7vpoAAClEtrp479ozcEpAI7915WhpwAOMGMAoAaglv/t/hAAAHAKAM+fDADkOwCnHsqU/GcCgF217cEQwLtxJUlRA1DL/919/gIAAAAASLVqjpPPZEb+0wfAB3dBowxAD2AUANQAtPK/2R8CWFk/AAAAzLjioaU04UPbvPSvRAB6AKMAoAaglP8BAAAAABFi1lHUfghAGQCfzkDINwIAwI947gjAU/6PAABaaACgPADWSflfYvbAEwAe6oFIFwE4wowDAAFI/f+fOX8IoAEAAAAAZnYADuPHf/U90ATAoz+BAABK8dIRgKPzPwAAAACgRgfgMH/+F2+5IgC2SV+CHoAAABgElD//2/0hgMbqAQAAYB4Ajm3aZx9mW4XgC7kCAGcAoAagkP/NAMDqAQAA4HIsM3PQmgQA1q0PegC/x+sIAKgBiOd/AAAAAEDipy9y2atp5m0u8r+oAACACAAQgPAAgOFfAjJcuAAAAGQDQJuZ/4frD5vptYptI4IC4BAjAgCaAOL5HwAAAADgPuyzn2RO9gCAzfLNZ5D5vRjMVghAOv8bAYB/BQAAAECQI7g4QG5Gz1b8sYt9FXoAQgBAAML53+gvAS2sHQAAAMwfgdQSWg0/v7nJ/4J/D4ANTAgACEBuABAAAAAAECHa9OwTGwDHnOsGAP+O53EAMAgomv8BAAAAALkBsE3/BpMBcGz2Lz9DAEoAQACSDQArAKwsHQAAAOz5LCZoO4LIA2Cbs3Oxi6kAgCaAZP7v3wAAAAAAiQHgoAgxFwBjAqIH4A0ACEAw/wMAAAAAsj57wRbaYnb+FQfAxJsPAH6Nl44APA0ARADAxrIBALUB0DxknrAA2ObtXZxjdADAGIBY/jcCQAMAAAAATMi9x/QX8OyXEAbA8A1YAIA3AFACkGoAWP0zAAAAAADAjAzk4lvMBMDkDgw/ZtIAAAKQyv8AAAAAgLwAEMw7VllYFgC3yVfOEIAKADoNgCoAYNUAgNoAWH2knTUkAKaXYDjI/BSvYgC4k/8BAAAAAAUA0FwUAIbS4GZzuVqPu7n5JgCAEoBkA8DqvwFROgMAAMB+8WwBv0fzVgCQKQEwBCALgE7+BwAAAAAAAKvFs9ocf5u7AoDIHCAAEAbAnQZABQCwbgBAbQAsX51cbEAAeGh/cJLRAUBhAXQAAAAAQBEArG5yjs0qbv4KACIlgI1NTBYAnfwPAAAAAAAARmsnHABclGGYAvwnZFNXpwEQBAD8N2AAAADMr3Xz8g6eSsXNYQFA4luxk4kD4E7+Tw8A3AwAagPAT9c5GAAOJ9fOEIAWADoNgPH4AgAAAABICICbn68SHwBPAMAhADoFAAAAAABA4vfp+tqRv/8mE3BiANh8LECmABUBcCf/AwAAAAAAgMWJs0UCgJ8RSLYyNQB0GgAAAAAAgLzv0+roStdIALi5eeeYAtQDQKcAEAAAK3UzAAAAbC9187SObxbPVrcAsgAAjwC4k/8BAAAAAABAf+ZsCQQA+QfNFKBHAHQaAAAAAACArADYd0cXGggAm6ddjL1MDwCdAgAAAAAAIPFMyd6iA+CweLba9XamAF0C4E7+BwAAAACk3oSXs4UAX/fdHAA3V28dAFAEQKcBAAAAAABIvwmfKgT4egvNAeBsG2MK8Hs8dwTgrQDgHQCkfgAAAM4XAm7OFrIxAHRyLVOAPgFwJ/8DAAAAAGqUYR8qBOjc/CUKALz5h81MsQVQowTQAwOgsWYAAACwLAQUB8CTs8unn6kKgE4BAAAAAABQaRDr40KA0ocGAcDh7fKZAtQFwJ38DwAAAACotQe/XwjQukyDw68EAG7eViEA0AVApwEAAAAAAKi3B79dCCgOAHerkJ8BKAOgUwAAAAAAAFQ8hL1RCNi83XhTAOglWgDgFQB38n9GAPAPNAAAADhfCHB3400BcHP44nGc0QVApwEAAAAAAKjbhv2pEHAEfg0FALD5W4b8DEAbAJ0CAAAAAACg9BzW34UAfwC4GTxbi4M2AHALgDv5HwAAAABQfBD7eyHg5u41tASA5jPmZwBuAdBpAAAAAAAA2IKfNnevYRYAjPUAqm9nHQF4KwAAAAAAAIhHywsRAODyBrCd6QPgTv4/HxbPnRUDAAAAAEgAgCfHX608ADoNAABwckPbZ8fmPQ0DACIUAHQfcQMAfgHQKQAAAMOWnkTclL8oAAAAAMDLjrHVfn1eO00AZ/kfAAAAAEAkAoDTOwAADADQaQAAAAAAAACAs6V8GDxbmzI7vwP0DIA7BQAAAAAAADtwVQBoP+EGABwDIJkAenUAaC8YAAAACABgtWUU/1WTAQA6+f9U/AkAAAAAINIAQPsOLADANQDuNAAAAAAAAAAAALgDQPHfAb50BOCrAAAAAAAAIPIA4HC8mwEAi5TWyf8AAAAAAABQEQD6D3hoz9hKvz02ALjTAAAAAAAAAICCANDPsADAOQCSCMDmXn0DAAAAABAA4NFYDJY7ACjfBOgAAAAAAAAAALw12QHA1XjulABcNQAAAAAAAEQeAFj8zq45/34AIIEAOgAAAAAAAAAAd88XALgHQCf/PxhfAAAAAABEEgBsBvdgaNOo/fp0SgCuGgAAAAAAAOLhWADA4BQgAEAAjgoAAAAAAIC/2Luj3MaNJQrDogS9U9AGhAvonQTX4HdBcGUHmf0v4SaZ69xJYCceN7v6VNXfGxhRZFd9rNPysNIA4KBdz6r/DtCvsRn9HwAAAAAAACoBwCdiBwABAPBKAKDynwECAAAAAFKsEwBo/Ii1AXBHAFoDAAAAAAAAKwsAFu1vofwD6AkAo/8DAAAAAKi/Al+8EwB83q8BQAgAvBIAaPxXAAAAAAAAAJAGAC0/A6j9hwDOhgCkBgAAAAAAAFb3newEAPWvAQAYIYBQ/wcAAAAAsPq/+voAwKu7BjCK5joaIwChAMDsIb5feu9oAAAAWA7bJRcArgAgBAACCsAAAAAAAABAcl3FAeB1d08AIAYAjP4v8HeAAAAAAAAZ1iYOgNnpezgF+IyayxgBCAUAAAAAAACWw27JBYAJAAQBQDABGAAAAAAAAGRLAJwAEGAUwp8CJATQ6f+mvl0AAAAAACLL5+fv2QFQ+wm8MwIQCgAAAAAAACyH1uwCgDXCVwEAGAHIDAB8/gwAAAAAAKD0AAAA8AT+sc6GAIQGAAAAAAAAVv+9subqracISgEAoUKAAf3fHupeBgAAAADE7/8AAAD8sY7GCEAmAAAAAAAAsPoHAE4AmCN8GwAAAagMAJx+BQgAAAAAKN3/AcCAnypIriEAeKX/BwVA790CAAAAq+8W9gOA4/cBACIBwAgARv4KEAAAAAAQ+v2/tf8DAADwfd0RgM4AAAAAAADA6tnuHAHgma6HCCoAQJQQYFD/f+rvFgAAAADA2HXZAAAA2GmdjRGASgAAAAAAAGD1Hv97AcDz3p4AQCwAGAOAYb8CBAAAAAAUfv0HAADgbR1HAeCV/g8AAAAAYPm3fwDAI/i2jBGASADg9itAAAAAAEDA4f9lv8fcAwCer9YTAIgGAGMAMAoAuvMyAAAAWO+//F/3fMwBAI/g93U3QgCR/u/1K0AAAAAAQOHu7wQA12/I46sAABVGAOO+D68fAQAAAAAACnd/AAAA/lxnQwAiAwAAAAAAAOsvzf/S5zEHAADg+zoOBMAr/X/EjwAAAAAAAHWbvxMAfBvrFQDEA4ARAIw4AwgAAAAAqNv8AQAA+GEZAtAYAIQAwCL7yQAAAEjS+6/9H/N0AGioHMWft7sRAkj0f4uwWQAAAAAAvdbU+8XfEwC+txYAhASAEQD4nwEU/tEsAAAADP0BAADwW2dDABIDAAAAAAAAQ38A4FzTij99x7EAeKX/e/8IAAAAAABQbejvDoDZ94uUPdgMAKKMAAZ/EbcIm6XzyR4AAAAKNf/rsMccAACAt2UIQGEAAAAAAAAoNPYf+pgDAADwtu5GCCDQ/y3EZgEAAAAABH71zwqAAwCICgAjAPA9Ayj8dzMBAABI3/03geUAAOfvFQB8dZ2NEYDAAOARYrN03tYAAADknvxftw0AAAClNfoUoIQAhvd/AAAAAEDyl3+R7p8SADyDX17De58RAHieAQQAAIDi6//yvwktAAAA/lx3RgDjBwDmeccBAACg+BZ9+XcCgPf/scMzGBgAwwUw/ht4xtgsnQMzAAAAaP8AgGfQc52teghgAAAAAACKb5H2DwAAwA/raMVHAAIBgD0AAAAAALR/AOBdOsoDQOAU4FgBKFz/DQAAAABA+88CgCUMANbyALhb6RBA4epdzwC2AGABAAAAAHxyXbYNAAAADgEojwAUAgDfIwAtfRYAAAAA8MnX/20DAAAAAGgLQOLiHwAAAAAApv8AAAC4r6NED7TC/d/3CEBLn10BAAAAAIGn/0kBMAGAry+rOwJ40bj2AwAAAACA138AAAD8172uAKwiACYAAAAAQMn03wsAMwDgEIB+CCBy4c849QkAAAAA0Ov7AAAAoO4hAP8RgEgAYA8AAAAAAON/ADCgpgEAkUMA/gJQue4bAAAAAIDxPwAAAIUPAXiHACpXbd73u6F0zAAAAACAD9dlAwAjAHAAAAkOAfiOAFQCAO8jAAAAAACAqvE/AAAAsocAfAUgc9EPAAAAAAD9HwAAgNqHADxDAJ1rvgUCwAIAAAAAiN3/AQAAED0E4DcCeNEBQKRCBQAAAAAI3v8dAHAAABwCkBaAzhU/AQAAAAD0fwAAAMofAvAKAYQu+BGpVK0AAAAAgNj9HwAAANlDAD4jAKEAwP8IQEujBQAAAAAE7/8AAADIHgLwEYBVTgCaGi0AAAAAIHb/BwAAQPcQgEcIYKUTAAAAAABA4f4PAACA8CGA/iMApQBgQAIAAAAAAMj14JYHwBUAZDkE0H8EIHWxA252y98rnwEAAAAAofs/AAAA0hmAFer/TwAAAABA5DVtAAAAkAFECQGkAoARRwCaKtYCAAAAAAjd/wEAANDOAKzMAGDEEQDZvwU8XfZaAAAA6LceAAAAZNa9igC0rtMOwQCwpi7KAAAA5O//AAAAiB8C6BcCaAUAQxIAAAAAAEDdAAAAAAD5DMCKDABuofpjmP0CAAAA/R8AAICwGYCVGABYrP4IAAAAANjlfgAAAAAA3EMAtf7/jNUfO3eS8Rc4q7dhAED/BwAAoMM6WoERgJEAtNatEADYAAAAIAAAAAAg7gjA8g8ABiUATQAIUbQBAAAQn6QBAACgtc6WPQSQ6/+DEgAAAAAAQN0BAAAAABEyAMseAIxKAJoqV4jfAQIAAKD7lAEAAEAG4C8AuQHAqAQAAAAAAFA2AAAAACBGBrBvCKDX/5/hGmSUDQMAAAABAAAAALEzAEsdAAxLAAAAAAAAw24FAAAAZADuAtAbAFi8Bhnkd4BT52IAAABA4AFARgBsACBjBrBfCCDY/8clANn/EhAAAADKhgYAAIAMwHcEYCQAOwEgQNUGAACAAAAAAID4GYClHQBY0PIFAAAAALgCAABABhAlBFDs/4+gAAjwO0AAAACKDABWAAAA9luWdARgJAD71a/E5RkAAIBQA4BlAgAAIHcGYDkHAM+R93kCAC2FEQAUB4DKAGA5AAAAsONSPAbYHgIo9v+hCUAbAOa09RkAAIBIA4DloAoA9xoBAPJmAJYxALCx9xkAAAAAMMTP+63LAQAAgH3XOaEAJAcAz7H3ufG9I+kLGgAAAGEGAOv8ZYsAAAAQKQNoCwEk+//QI4CNJWxNW6ABAACIMgBYGz4LAAAAH617uhGAkQAAgH0bEgAoDQCBAcA6t2AkHwAmAMAIINIA4DH4Nuf+HSAAAACi+dl+6T8AAAA9luUSwAsDgN0BMGet0AAAAHTeO/u2fwAAAGpkAJYrAHiOvssTAAAAACDiAODSvpH7A2AJU8/WAyvxCEB0AHALDYAla4n+bJcEAIUBMAm1fwAAAKqMAF4T9f9n7Cq2Zi3RAAAAdLzc/Y7+AQAA0G1pHgP8WgggeimP2HNMAAAAAMDwl38AsMO+AACZRwCiAwATuMlNpUj8AT4BAACg12r2fvkHAACg1AjgNUv/fwrc5Kb3mDlpjdZvwwCg4gBgvew77QIAACAgACxJAGDh65h44QYAAEBzdLZz99cFwBplywOAd9Y5xwiAAUCvSaZ44b4CAACQIwH45+4PAABAl2UpBKB6FTeFW5z5ZwDdqxYAKAsAzwTgMnfax/kAUOwgatURgGXo/xIDgMZfM+ec0gIAiq9KArBe5n77GAAAgH9cxwQjgBcGAP0q2ZyySAMAim9XN3/61f/S9wMBAAAQdATwygBAAQBLyiINACi+wxOA9dL/Ye8PgC3MfQEA7y6LHgIYA4COpSwnAD59VQAAAIyc+wOA/V5nAEDKEcALA4CepUz6FCAAAAABE4CffPUHAACgIgA+KQAGAN1aifwpwBMAAACKm2b37g8A2gEwH1jvrXvoEMAYAPStZcrb5tr9ogBAUQB0SgAuX/9EqgBwLhAAYPcVeQTwwgCg8zQTAACAggCQevkHAHsUMwCQMARgANAbAEvGKg0AAEDHPfN+L54HfCQAAAD+dcn+LYB/DwGMAUDvtxnlU4D9DzYAgJoA2P8IwDyk9TkAwPfWAgBGABECgKfS/W3LMzO+pgEAANBxy+ya/QOAnWQGAD5cFlQADAAcqpnuvun/d4AAQFEA7Dz9H/a0A4AYv2diBPCVEED3Uz8SzTN1a/cJAAAAtUFztzuiCoA1Si2jz3+4jiFHALoBgGUKNHUPAVwBAAAQ3DF99g8AaJxm0ueTCUD3Mz+17m7j+0w+ACz9OwEAiAyAHY8AXIbuYgAAAD617vFCAGMA8NmVFAAbAAAAghumz91QBYBvffj6x1wPrEwjAOEA4Jarni3pyvTnqzIAqAiA3Y4ArPPgD5UOABsA6LPCnQMkAPCaaC7pyjQAAABdvvuevREAAICey2IJwBgAuBW0dGUaAACAfmDutHFkATB73hoA0Gv9J1QIIBwAPNK90aQr0xHaMAAIDwCBgVc2AEwAoNsKdQ6QAYDTthGu3gAAAKi9ZnZ0MwBoq2SxHsEB6xgoBKD/A4CDx7sAACgIgEmx/+sCwPPengBAv3UOEwIIBwBPyVsrVssGl2kAAAA6JmadbgMAAACEAPwJAOfKrQuAk0cpAAAAQOSCZQGwxihk84GVJAQgAHAGwJKrTAMAANBxt3RqigAAABACEACMeKdZcpXp2eGLAwBxASB4AEAZAFuITQ8APjMCCBECEAD4FA/xDGADAABAFACzyh7OBoANAJQPAQgA/Gua4OaZXAoWAKgHgPYfI47LrQAAIABJREFUAawyHwsAaB9kIgT46RCAAGAAAJZUZRoAAIB+eVmvXqMLgDnCpgcASUIAAgDn7Ex09/gcWgIAAEDkYgEAACAEUB4A3BIXNb0MAAAAAE0sd2o1ugBYIpQx/hJwihCAAAAAtIYai8f3BgDKAqDTtQIAAEAIQADgPzuT3D4TAAAAarTsOmvWBYBfcbgCgNohAAFAsqo24l1g9vhnAEBUALRaeVH6XC4A2CJUsUgEJQT4aP1KADBorjnnuR4AAAD6AWCV+lwAAAAkCgF++fYrAcAYAKhN0JzKFQAoB4ATAFB9O5gAQOkQ4Jdv374RAAwpa2oAmAAAAJDcKbPUIw8AdI8xEwL87Pqt/4uOAJ7yt7T5z5vNWar06vLvAICaAFi1drAPAJYAtwYAhA8Bfh8AiAogwD1tBYDWCOAKAACAYljW70IBAAAoHQJ87/+SIcAtfV1TA4BXtQIAAEDkPJwwANYAt4amHj0E+F//FxwBPPPXNTFCu4WBAKAcAEQHAMoA2ALcGnp68BDgbQAgKIAQd7T1FKDUCOAKAACAIgA6fvkAAAAUDgH+3//lQoBbiBs6AYAvVAIAUA0AbftE7YM5AWCWvzX8IcDgIcAP/V9sBPAMckNbASCUAUwbAAAAgs/WqvbBnADgc3tPAKBsCPDjAEBMAFFuaPMhgDVFkV59ag4AqAiAnpd5AgABfqhACODQ/6VCgFuU+5kIAH4/WQIA1QDQdFZG7oM5AWBNtu1ZYiHA3/q/0AjgWaOyaW2iDQAAAACgA4At2bZnaYUAfx8ACI0A4tzOKQ0Ammr07PNPAYD/snc+OdbjNhC3IiBrG7qAN5m1DV/kwYu3DgJE9z9CkAmQZDD9dT/b/FOkihdoWTRZP7Ok1wMCwAa3MAIA3AEmmgAC+g9DAGugdD4GAJQqMryxRAAYDQAaAQC0MxQCwKAmwBf6D2ICnJGy2bIAwEEAIAAgVskMtzArALDIL6w5QxPAfgAAMgIIlc3nhwCO+M+xG/0tAsCAAIC3sEwA0AgAQ5oAX+s/BAGsoZJZkgCA5YUlAgABAOQsPDQAWFwDyHGDiSaAhAGAYQKcsXIpAAAQdXQQAAgAiG/XwABwgNc9ASCsCfCrAQDACCBaMp8DAMII4JmTMRv9MQLAeACw4S3MDABm9cTA/kITTQAf/XcngDVaLgUOAQAUkul9JQIAAQBEBLEBYMPuXgSAqCbAN/rvbAKc4VIpAAD+o7Riun4CAAEAAwDK6ADQCAADmgDfDQCcRwDxUilwCMD/JiABgAAA+noBLswMAPS/DFrotkUTQH4A4EsAa8BUCgDAHvsZrgoRAYAAQABAOB1UDgLAeCbAD/rvaAKcETPZBAhgjtugb6yeAEAAwGDjCg4AM3ThU8VDmgDvnwCg0wAwERWcVm58W4kAQAAgACBkuBIAxjMBekclgDVkIiUOATiPAA4CAAEAs0R0n7GBA4C2N9iQF0cTwEv/nUyAM2giwwNANe5SBAACAAEAQWMPAsBoJsD7EwDoNADsBuj+4zTry0oEAAIAxjMe4ACg/GFQbOueAWAC9I5KAGvUPEocAvAcAVTrpRMABgOAiloXgwNAjdqyaAIo67+DCXCGTaPIIQDHEYD5XSUCAAEAQmUKPADswJVPAIhnArw/BYBOA0D7OwKlnMpBACAADAkAdXAAiOta0gTQHQDYE8AaOI0ihwCOqKvf7PSAAEAAGAsAVJ+/EAAGMwEu6L+xCXBGzqLIIQCvEcDjAQABgACgVyCI7JsFAJ71LV4CCGcCvK8AQKcBYKahnkTtcE6JAEAAgCiKAx8AdtjSJwCEMwF6RyWANXYWZQDAZQRQHLglIABsiG2YAEAA8Cv9bWLEMgEu6r+hCXAGT6LMIYAj5NJ3Qz0gABAAABTQEgAUPwtKwO8VmgBWBoDpCCB6EmUOAXgM1Z4PADbD7SIAEAAAlmUKABvgi0cAiGgC9I5KAGv0HAodAnCoKZdTSgQAAgACALQIALCj1j6lO5YJcEP/jUyAM34OhQDAvKOXgwBAABgVAI4IAKD2VfC09qncoUyA9x0A6DQATD0A8xGAwLot/yoBgABAAMCofV4CiGUC9I5KAGuCFEoBgHFVCQwANsvdIgAQAADeflsA0OoJ0aaVNAEc9N/ABDhTpFAIAIzL6iAA+JMZAcAJAGoMAFDagkIAGMgEeN8FgE4DwBQA9jlGX37UnQgABAAAAGhBAGCDLP55YsQxAW7rv/oIYM2RwSpGAMGohQBAANCsjhnw9TcGgB2y+KnagUyA3lEJ4EySQKmLgJZk3by+TggABAD/cihRAOCAbFgU7TgmwPsJAHQaAJYegF1liTDLKACgmBUCgA8A1DAAsGGlhJcAopkAj/RfdQSwpklgEwMAq7buRysEAAKAPwC0oQEg1mllmgB++q9JAGee/IkdArCqrUoAIADgF4feMx5hAEDh5SsEALT4G6YBoGoCZMqfHADss8FyiyOrRAQAxC9RAoDPmswBYAN66XgJIJoJ8Fj/1UYAa6b8NUECCMMrBAACQFAAaIEAYMcrfwp2FBOgd1QCOFOlT9ADMOjsrrPJiACwAaZiBADYASvAHADE8bMSAEYxAd4SANBpABjN1I0GbFKLJQAQAHRftx2wAuwBYId553gJIJgJIKL/KiOANVn6miQBxND/mwoUEQAQ/yvrCACgVQl1ZAAoXpXPsDYBekclgDNb9kQBYA+xVAIAASAoAByhAEA41c+XNU+MCCbAWwoAOg0AUw9AlQDE2pK1DDsCwAGYjSEAYMYrVgcAkG0HBwFgEBNATP/FRwBrvuyJAsCxqK2zenclAgABwFlqajAAEN2G6ob+DFsToHdUAjgTJq/KEsAMv8zNegWeAKD2zUMAcHjIIxoAbCgPzzOAcUyAtyQAdBoAtgCAOPyUWWBIAFBTWwKA/UOWcAAg2A0KFo4w1EwAUf0XHQGsKZMnDACY/wVMYH0EgMEAYEL72GzxAGBDalMEgAgmgOwAQJIAzpy5a8IAsMvPACT1/3ZrDgkAgL9IMwQAHGjrcQIAsRFAAVoLQ9EEkNZ/ORMgqf6LewDyBCB6U2Ez36fZ8/kJAD6CO8MVqg8AbAC54BnAQCaAuP6LjQDWrLk7wAlA9qaiff91BQCtrx4CgPlTtogAIPQCSvQAngEMYALIDwCkCOCVNnUNmwBQfqmAADAaADQoAChHSACQ2Qi0KwkMHRNAQ/9lTIAzb+bEPQC0078yXSAmAGh99hAArPe9xQQAkVZQsHoSQ8sEUNF/kRHAmjh1CgAg9otADYZMCAAEAEfD+bEGegHAhtKhCADwJoDOAECCAF6ZM9dwCUD8ioLDoMQVALTaHgHAeN9rVAAQ2AmZGSUlGt0E0NL/5ybAmTpxRQMAjv154RdxNAkJAGin0UYBgIq070dYANgx+hPPAMKbAGr6/3gEsObO3KETT5VvgVpSUABQ+vAhANjue4kLAI8zXiFWwdA2AfQGAE8J4JU8cVWJAHYnjVHpygQAAoDfvh+BAeDhLFCoO80TA9oE0NT/ZybAmT1v5dCKGWtNm0cfcgYAndHnCABQcL44S2QAePgK+rM/w8IEUNX/RyOANX3i1ADgbu3Lu/+PtZgAQABw2/cjNAA8KoGGACEMdRNAdwDwhABe+fNW9Qjg1nWAprQWlz16DgDPtkNFcQkAljPnGhwAHpgAUpPAbWIgmwDa+n/fBDgHSFtRBIBjv4oAi9ZKNpcm7A0AYP+ZLlAnRgEAkfL0BID776BYZ5onBrIJoK7/t0cA6wh5a4dqXECAsugt41ETCAsAKpJLADB0nVt4ALj9syBia6E2Q5sA+gOAuwTwGiJt9VCO5TMZXFRJxGeL3AFAYwQwBAA0DM2xvgevUoOzRwZ4BCCICWCh//dMgHOQtB3q8bMToPnx/1x6HAGguj44AcBZdFoGANhnhxefRwCCmAAm+n9rBLAOkrZ2HBYMMP9a/PVX8EyJAwOAggHaHrwEQDGrFgXUdM4ZAO4QgODRJAIAsglgMwC4MwJ4jZK1chjF/qeuW5bFBD+OaVgAOIAAACo21X3fkSrTGwCu70aBqX2Gqglgpf/XCeAcJ2vmvXex0n2hjwBHACjez04A8JOdlgUArhKA6DcJZRnYBDDT/8smwDpO1sqRPeaBAUDs3zMPBQDFWPJUbXB/ALi2HcUuzwxXE8BuAHB1BPCaCAB5YhoZAH4ggJkAoLLvQGUJAABXzgHI9qOZqgxrAljq/zUCOIdKWkuu/3NcAJiUm+9y/VN1CACw/B+86s4cAgB8TgBV9u9Sk3FNAFP9v2QCrEMlrRAAUgPAr4YAv1++JAAo7fvD5LdkAPDphggvgb8CgGsC2A4ArowAXoMlLbf+P+4BngAg1Q+XL9X/zifSGAAg8JQYBwBwAOCTdRTjNDP8TABr/f+cAM7RclZTA8BGAPi9/S7/Xc6ytPs6RQAQOXthWJE7TG5n87/PIwCwJoC5/n9sAqzDJY0DAFQA0GczAoDWvt9PfzlyAsD3JwEWgLebYWUC2A8APh0BvMbLWSMADAsAMwFAS4JBDuXsSLldZkP55xEAWBPAQ/8/I4BzwJRlPgY4hwaAQgCICwA7Rs53sNx+4Y1o/TMQHgFANQFc9P8jE2AdMWd5RwCev8gSAgA2AoCaK7ZDpHzHy+2y/L/46/1ZqjGoCeAzAPhkBPAaMmU1LQBssQFgIgAEBoA7BwHlkW8fLbcEAHQTwEv/fyaAc9CUpQWAiQAg+5U6CAA0JwJoBwGADkB2E8BN/380AdZBU5Z1BLBFB4BGAHB5MaQKYvHf3XEBYKYWQ5oAfgOAn0YAr2FTlvQUwEwAIAB4AsCl/S3OGc7WBKjEmCZA76AEcE4EgFQhcg2ohqQPrS45CAAI/i+ej1+D5SAA0AHIbwK46v+3JsA6bsZy3gScCQAEgHviIPi3PrMBitbOEgAYSCbA2xcAOg2AcUYAU3gAgPshgFEAQPI5PxgCFL19HRYAKMOQJkDvoARwjp2xhPq/xQeAiQAQHwB+HAJo/RDO0ADAnwGENAHc9f+XJsA6dsbyjQCEOkByANgIABbeyzJ7fP2PDAAzVRjQBHj7A0CnATDGCCAFADQCgMtTK/wgz2L+8W8EAMuyEAAYH5kAvYMSwDl8wtKNAOYMAFAJAD5PrfJnlz9AwLJY7KY+AFi8pnQAUpgAEPr/pQmwDp+wbBcBtokAIN8ohwEAxQe1/WAeFAA2SjCeCfDGAIBOA2AAD2BOAQCFAJAOAFA/hR8AAF7zYD8HNAF6ByUAGgCQFA8xAvQFgAmsUw4DAJUAEBkA6AAAmgAw+v8nE4AGQLoRwJQEABoBwGdATAC48gbVeAlmGJsAbxwA6DQAkp8C2AkAKsskABAAvgIAtN7Bbo5nAvQOSgA0ALL5npKXgJwBoBIAfACgEgCuiC0dAMb3JgCU/v/BBKABkM8EmLIAQCEAEAACAECLll+GrQnwxgKATgMg8whgSwMAE9ZWjQMAEwHgCgDUmM/MsDIBwPT/fyMAGgAJRwBTHgBoBAACwO9LhgaAQgBgfGMC9I5KADQA8vX3OREAVKhmORAAgHkAEzYATFnrnyFhArzxAKDTAMg6AhD9APAGgEIAIAAEAIAKtVcMLBMAUP//MwKgAZCwwU+ZAGCC2q2BAGBCWzE2AAB5ABwAoJkAvaMSAA2AfCOAPRcANAIAAeDfbxM2AEwEAMYvTIA3JgB0GgDwg0//AaA7AFQCgA8AVLCXGhwAYF4NHgFEMwFA9b//kwZAwhHAngwAtGerMwHAZ+OvvtTgAFBDJZdhZwKgDgB6pwGA3fYQTgC5A8BEAHDSCCwHAB0ApqQNgPE0/oqq/39nbvL1+D0dADQEMRwRABoB4Irgtki5ZRjGb5j6/w9mJuEIYEoHAJUA4PPMOIcA9ikAANScDYDx3ASgARApav7WHgoAioG4EACgPYAtAgBgbBePANIEoAEAbTrHKn9/AJgIAE4AAPO0cwgAaDBbxQALGgA0AYKWPwAAVAKADwDAzMKmEABQYbaKQROABsD9aMkbOwHgbsscCwAmqOXCA8CUswMwMpoANAAymgBzSgCYCABOMtGQXmt8AADYLvZu0PiNBkCgqLn7ejQAaAbyQgDArYMpCACUlB2AkXAEQAMgYaNXOQCMAACVAOCkE0irxQcA/+1i5yYB0AAQiJDnAOesADBhqOGAAADxvFMYAPCemPAOIHDQAKAJEHD8BwEAjQDg88gIZbDHAQDv7wb2beD4CwcANAHiVT8EAFQCgNMjAy02AAA4vx8cANAEoP6PagLMiQFgQmmbwwEAwAhgCgQANWMLYAgFyk0AZiKhCbBPmQGgEQB8AADoYHsEAHB9QTY2bY4AeANgUBNgSg0AFWTrhgMAfw9gJgBwAEACoAFAE8Cl+DEAYCIA/Iudu8lx3IjBACrLgNY2fIFBFl63kAsNcv9DJAgC5AfBtHtcJZLie8vZjFSSip9Iq4MCQHQjbF9KBYBLiYtKEF8AGAIU+/lPkgBwzRGe+gWA6FP+qBUAApdLAyC/VQPAEKDSACBNALgIAD0DwLtNoKMDwLXCNaXtEED9z9J4rlH/swSAmXXoo0w1jCgWlyxHWiMAhO0ZGgAlPH0BUMjlfPt51QBwFQCCbpjQc367sh4eAK7n2wM4TQvgmytwviHA1Gc/SwBYBICoOybJb1uKBICge8ReLQEYACSqfwdukreUC3ArcyW+8AvKlgEg8KTfzyFNAoAGQBm+ACgl/24+d/iXJgDM21gFgKyDsL1iALhELxSprRoAEkCd7N8gAPya4Rgy3zNhZz3gQTw+AEQs180+XcdT/a/k0rr+JwoAFwEg6KaJegT2mgFgCV4oDAF8AVBh+Fzhxz95AsC86nuLP4TcqfGR4d6uEwAeZ9sEGGrzBYAEUOXRTxQAFgEgqm2UoAFQKAAs2S8nDYcAfgGY79WzwOwvUwB4CABBFSPkvIdU1ZAAcOxyGQAYAhgAzHQ5zUZeOwAs4cvYNQBEtAD2ugHg2OW62aGrWQ0Aamlb/3MFgKsAEHTjBJz4mGcwJgAcOTXUADAEMADo2AM4ZPSXKgAs0Vto2wCwxB9jpQCwBAYlDAEMABokgGOSf64AcBUAggLA9ehjHFRTgwLAcctlAFDSZgBQy7Vn/U8WACZVYAEg3anfageAw5bLAMAQwACgYQLYb8lPe87xXQSAoABwbA9sH9VVjwoARy2XjdkQwACgYQJIf9a3QldBAMh2/9+qB4CDbhUDgLJWAwAJIH/wzxYAltBttHMAWIIPsFgAWPJeSHoNAQwATpcACpzzrABwEQCC6sZxQ4B9XEGNCwCXoHXCEMAA4NwJoMIpT2tOPgILYusAcNztfztDAJh/s+wGAKVtBgASQPYf/uQLAIsAENU5fkQeXrkAcAnJSRgCGABMc29W/zMGgPEb68tVonkAOGYIsI/MfYEBYPbrwoft2BDAAOBg4X8R6OC+X8IAML4MCwCZOmBDGz+RAWDu7aL+17caAEgAuX/3kzEADN9YBYBECeB2ngCwnGgjoGQLwADgXAng8Mc+ZQAYfgkEgDQr8DG2mMYGgIl7hY1YAjAAiEkAj4o795kCwPBXKwEgauVfL9gVA8C8jolt+Bw2A4CCourA7fhTTRoALjELKwDMTgCj/9/gADDrjrEHn8VTA6CgkI8B9oD6nzUADH61EgCSjMCGB4/oADAnL91swYYA6n/kGKDB+D91ABibAF6tiALAzLb2j2+aogFgUf/5kYlfAny3uvMSwNG14B5znmkDwNA6JACkSAAf4wtpfAC4qP+EtAB8ATDVscUg6qHPGwBG1iEBIEMC+JjwJh0fAIYnAPVfAjAA6DUG2MMe+sQBYGAderVMCAATE8DHjFZ6ggAQ9HsVqth8AaAJkLH9nz0AjNtZBYD4BPDZQdUNAENXy657Pk8NAE2AjK//2QPAuJ1VAIhOAJ8eU+EAMHC17LmGAOp/qybAPfT8cgeAYQlMAAjOvp8fUuUAMGq1/P3fc1p9AVC3CTC3KIS+/ucPAKO+shIAYhPAbdaFThIAxqzW3XarBeALgGzu5y3/BQLAiKL88jILAHNW45X1rx0ARiSAm71WAjAAaBQBEiT+/AHg/dV/fZkFgBnL8Vr+Kh4A3m4Vxr8MMM/mCwBzgIwNvwIB4M3V/8oyCwATGtsv1ujqAeDNu0f7/9yeGgAiQMIHvkIAeKcJ8LX3KgFg/G3/6gWoHwAOu02pZ1X/q0eA+/nKfx13+2qlhW96BX42L9kOzm/zBUD3zdDzfuzeelf+R3gc8Prfeovw8V8LvgA4w/P9fkvUW+kxLRgpK/q9tmdle9gP+D+rXwBqA+zK0iH5y8t/fAToWtm+tFjKfx+bAUDLV1HV/+C1V/0TRIDOle3lDcKd2srTAOA8j/hD9Q/rA/xgf71b5gyxt31le2F/sCN0sxoA9AwBu6Q/PgT8Z/X3u9qfoKqpbK+tlpu1o80A4HyF6PHJZuhJp1EGUP0/fUewJbRlAHDa99F/J4H9z3+xMJyxqt11ur62Xn+zQK2tBgDASTLvP+Ou0gaf2QwAAKChpwEAAPSzGgAAQEObAQAANPQ0AACAflYDAABoaDMAAICGfm4IYN0AoF8L4Jt1A4B2CeC7VQOA6nwBAAANrRoAANDQpv4DQENPXwAAgBaALwAAQAIwAACAc/IFAAA0tGoAAEBDm/oPAA09fQEAAFoAvgAAAC0AAwAAOCcDAABoaDUAAICGnv4EAAA0ZAAAAA1tBgAA0NDTAAAAGjIAAICGVgMAAGjoaQAAAA0ZAABAQ5sBAAA09DQAAICG1H8A0APwAwAAaNgD8P4PAP16AOo/ALSx/hUBfvtmLQCgk1/+YBUAAAAAAAAAAAAAAAAAAAAAAAAAAAAAAAAAAAAAAAAAAAAAAAAAAAAAAAAAAAAAAAAAAAAAAAAAAAAAAAAAAAAAAAAAAAAAAAAAAAAAAAAAAAAAAAAAAAAAAAAAAAAAAAAAAAAAAAAAAAAAAAAAAAAAAAAAAAAAAAAAAAAAAAAAAAAAAAAAAAAAAAAAAAAAAAAAAAAAAAAAAAAAAAAAAAAAAAAAAAAAAAAAAAAAAAAAAAAAAAAAAAAAAAAAAAAAAAAAAAAAAAAAAAAAAAAAAAAAAAAAAAAAAAAAAAAAAAAAAAAAAAAAAAAAAAAAAAAAAAAA+J09OBAAAAAAAPJ/bQRVVVVVVVVVVVVVVVVVVVVVVVVVVVVVVVVVVVVVVVVVVVVVVVVVVVVVVVVVVVVVVVVVVVVVVVVVVVVVVVVVVVVVVVVVVVVVVVVVVVVVVVVVVVVVVVVVVVVVVVVVVVVVVVVVVVVVVVVVVVVVVVVVVVVVVVVVVVVVVVVVVVVVVVVVVVVVVVVVVVVVVVVVVVVVVVVVVVVVVVVVVVVVVVVVVVVVVVVVVVVVVVVVVVVVVVVVVVVVVVVVVVVVVVVVVVVVVVVVVVVVVVVVVVVVVVVVVVVVVVVVVVVVVVVVVVVVVVVVVVVVVVVVVVVVVVVVVVVVVVVVVVVVVVVVVVVVVVVVVVVVVVVVVVVVVVVVVVVVVVVVVVVVVVVVVVVVVVVVVVVVVVVVVVVVVVVVVVVVVVVVVVVVVVVVVVVVVVVVVVVVVVVVVVVVVVVVVVVVVVVVVVVVVVVVVVVVVVVVVVVVVVVVVVVVVVVVVVVVVVVVVVVVVVVVVVVVVVVVVVVVVVVVVVVVVVVVVVVVVVVVVVVVVVVVVVVVVVVVVVVVVVVVVVVVVVVVVVVVVVVVVVVVVVVVVVVVVVVVVVVVVVVVVVVVVVVVVVVVVVVVVVVVVVVVVVVVVVVVVVVVVVVVVVVVVVVVVVVVVVVVVVVVVVVVVVVVVVVVVVVVVVVVVVVVVVVVVVVVVVVVFfbgQAAAAAAAyP+1EVRVVVVVVVVVVVVVVVVVVVVVVVVVVVVVVVVVVVVVVVVVVVVVVVVVVVVVVVVVVVVVVVVVVVVVVVVVVVVVVVVVVVVVVVVVVVVVVVVVVVVVVVVVVVVVVVVVVVVVVVVVVVVVVVVVVVVVVVVVVVVVVVVVVVVVVVVVVVVVVVVVVVVVVVVVVVVVVVVVVVVVVVVVVVVVVVVVVVVVVVVVVVVVVVVVVVVVVVVVVVVVVVVVVVVVVVVVVVVVVVVVVVVVVVVVVVVVVVVVVVVVVVVVVVVVVVVVVVVVVVVVVVVVVVVVVVVVVVVVVVVVVVVVVVVVVVVVVVVVVVVVVVVVVVVVVVVVVVVVVVVVVVVVVVVVVVVVVVVVVVVVVVVVVVVVVVVVVVVVVVVVVVVVVVVVVVVVVVVVVVVVVVVVVVVVVVVVVVVVVVVVVVVVVVVVVVVVVVVVVVVVVVVVVVVVVVVVVVVVVVVVVVVVVVVVVVVVVVVVVVVVVVVVVVVVVVVVVVVVVVVVVVVVVVVVVVVVVVVVVVVVVVVVVVVVVVVVVVVVVVVVVVVVVVVVVVVVVVVVVVVVVVVVVVVVVVVVVVVVVVVVVVVVVVVVVVVVVVVVVVVVVVVVVVVVVVVVVVVVVVVVVVVVVVVVVVVVVVVVVVVVVVVVVVVVVVVVVVVVVVVVVVVVVVVVVVVVVVVVVVVV2IMDAQAAAAAg/9dGUFVVVVVVVVVVVVVVVVVVVVVVVVVVVVVVVVVVVVVVVVVVVVVVVVVVVVVVVVVVVVVVVVVVVVVVVVVVVVVVVVVVVVVVVVVVVVVVVVVVVVVVVVVVVVVVVVVVVVVVVVVVVVVVVVVVVVVVVVVVVVVVVVVVVVVVVVVVVVVVVVVVVVVVVVVVVVVVVVVVVVVVVVVVVVVVVVVVVVVVVVVVVVVVVVVVVVVVVVVVVVVVVVVVVVVVVVVVVVVVVVVVVVVVVVVVVVVVVVVVVVVVVVVVVVVVVVVVVVVVVVVVVVVVVVVVVVVVVVVVVVVVVVVVVVVVVVVVVVVVVVVVVVVVVVWpjfIgAAAHIklEQVRVVVVVVVVVVVVVVVVVVVVVVVVVVVVVVVVVVVVVVVVVVVVVVVVVVVVVVVVVVVVVVVVVVVVVVVVVVVVVVVVVVVVVVVVVVVVVVVVVVVVVVVVVVVVVVVVVVVVVVVVVVVVVVVVVVVVVVVVVVVVVVVVVVVVVVVVVVVVVVVVVVVVVVVVVVVVVVVVVVVVVVVVVVVVVVVVVVVVVVVVVVVVVVVVVVVVVVVVVVVVVVVVVVVVVVVVVVVVVVVVVVVVVVVVVVVVVVVVVVVVVVVVVVVVVVVVVVVVVVVVVVVVVVVVVVVVVVVVVVVVVVVVVVVVVVVVVVVVVVVVVVVVVVVVVVVVVVVVVVVVVVVVVVVVVVVVhDw4EAAAAAID8XxtBVVVVVVVVVVVVVVVVVVVVVVVVVVVVVVVVVVVVVVVVVVVVVVVVVVVVVVVVVVVVVVVVVVVVVVVVVVVVVVVVVVVVVVVVVVVVVVVVVVVVVVVVVVVVVVVVVVVVVVVVVVVVVVVVVVVVVVVVVVVVVVVVVVVVVVVVVVVVVVVVVVVVVVVVVVVVVVVVVVVVVVVVVVVVVVVVVVVVVVVVVVVVVVVVVVVVVVVVVVVVVVVVVVVVVVVVVVVVVVVVVVVVVVVVVVVVVVVVVVVVVVVVVVVVVVVVVVVVVVVVVVVVVVVVVVVVVVVVVVVVVVVVVVVVVVVVVVVVVVVVVVVVVVVVVVVVVVVVVVVVVVVVVVVVVVVVVVVVVVVVVVVVVVVVVVVVVVVVVVVVVVVVVVVVVVVVVVVVVVVVVVVVVVVVVVVVVVVVVVVVVVVVVVVVVVVVVVVVVVVVVVVVVVVVVVVVVVVVVVVVVVVVVVVVVVVVVVVVVVVVVVVVVVVVVVVVVVVVVVVVVVVVVVVVVVVVVVVVVVVVVVVVVVVVVVVVVVVVVVVVVVVVVVVVVVVVVVVVVVVVVVVVVVVVVVVVVVVVVVVVVVVVVVVVVVVVVVVVVVVVVVVVVVVVVVVVVVVVVVVVVVVVVVVVVVVVVVVVVVVVVVVVVVVVVVVVVVVVVVVVVVVVVVVVVVVVVVVVVVVVVYU9OBAAAAAAAPJ/bQRVVVVVVVVVVVVVVVVVVVVVVVVVVVVVVVVVVVVVVVVVVVVVVVVVVVVVVVVVVVVVVVVVVVVVVVVVVVVVVVVVVVVVVVVVVVVVVVVVVVVVVVVVVVVVVVVVVVVVVVVVVVVVVVVVVVVVVVVVVVVVVVVVVVVVVVVVVVVVVVVVVVVVVVVVVVVVVVVVVVVVVVVVVVVVVVVVVVVVVVVVVVVVVVVVVVVVVVVVVVVVVVVVVVVVVVVVVVVVVVVVVVVVVVVVVVVVVVVVVVVVVVVVVVVVVVVVVVVVVVVVVVVVVVVVVVVVVVVVVVVVVVVVVVVVVVVVVVVVVVVVVVVVVVVVVVVVVVVVVVVVVVVVVVVVVVVVVVVVVVVVVVVVVVVVVVVVVVVVVVVVVVVVVVVVVVVVVVVVVVVVVVVVVVVVVVVVVVVVVVVVVVVVVVVVVVVVVVVVVVVVVVVVVVVVVVVVVVVVVVVVVVVVVVVVVVVVVVVVVVVVVVVVVVVVVVVVVVVVVVVVVVVVVVVVVVVVVVVVVVVVVVVVVVVVVVVVVVVVVVVVVVVVVVVVVVVVVVVVVVVVVVVVVVVVVVVVVVVVVVVVVVVVVVVVVVVVVVVVVVVVVVVVVVVVVVVVVVVVVVVVVVVVVVVVVVVVVVVVVVVVVVVVVVVVVVVVVVVVVVVVVVVVVVVVVVVVVVVVVVVVlfbgkAAAAABA0P/XnjACAAAAAAAAAAAAAAAAAAAAAAAAAAAAAAAAAAAAAAAAAAAAAAAAAAAAAAAAAAAAAAAAAAAAAAAAAAAAAAAAAAAAAAAAAAAAAAAAAAAAAAAAAAAAAAAAAAAAAAAAAAAAAAAAAAAAAAAAAAAAAAAAAAAAAAAAAAAAAAAAAAAAAAAAAAAAAAAAAAAAAAAAAAAAAAAAAAAAAAAAAAAAAAAAAAAAAAAAAAAAAAAAAAAAAAAAAAAAAAAAAAAAAAAAAAAAAAAAAAAAAAAAAAAAAAAAAAAAAAAAAAAAAAAAAAAAAAAAAAAAAAAAAAAAAAAAAAAAAAAAAAAAAAAAAAAAAAAAAAAAAAAAAAAAAAAAAAAAAAAAAAAAAAAAAAAAAAAAAAAAAAAAAAAAAAAAAAAAAAAAAAAAAAAAAAAAAAAAAAAAAAAAAAAAAAAAAAAAAAAAAAAAAAAAAAAAAAAAAAAAAAAAAAAAAAAAAAAAAAAAAAAAAAAAAAAAAAAAAAAAAAAAAAAAAAAAAAAAAAAAAAAAAAAAAAAAAAAAAAAAAAAAAAAAAAAAAAAAAAAAAAAAAAAAAAAAAAAAAAAAAAAAAAAAAAAAAAAAAAAAAAAAAAAAAAAAAAAAAAAAAAAAAAAAAAAAAAAAAAAAAAAAAAAAAAAAAAAAADwC4UiC6tV839MAAAAASUVORK5CYII=;" vertex="1" parent="1">
          <mxGeometry x="216.63" y="665" width="68.53" height="70" as="geometry" />
        </mxCell>
        <mxCell id="jbPWZQVVDv3tzskfTXxq-36" value=".gitlab-ci.yml" style="text;html=1;align=center;verticalAlign=middle;whiteSpace=wrap;rounded=0;" vertex="1" parent="1">
          <mxGeometry x="211" y="708" width="80" height="20" as="geometry" />
        </mxCell>
      </root>
    </mxGraphModel>
  </diagram>
</mxfile>
